<svg width="61" height="75" viewBox="0 0 61 75" fill="none" xmlns="http://www.w3.org/2000/svg">
<g clip-path="url(#clip0_414_7044)">
<path d="M64 74.9943C99.3462 74.9943 128 64.3797 128 51.286C128 38.1922 99.3462 27.5776 64 27.5776C28.6538 27.5776 0 38.1922 0 51.286C0 64.3797 28.6538 74.9943 64 74.9943Z" fill="#E2CAB3"/>
<path fill-rule="evenodd" clip-rule="evenodd" d="M128.012 48.6736C128.012 61.7658 99.3603 72.382 64.006 72.382C28.6518 72.382 0 61.7658 0 48.6736C0 35.5815 28.6518 24.9653 64.006 24.9653C99.3603 24.9653 128.012 35.5815 128.012 48.6736Z" fill="white"/>
<path fill-rule="evenodd" clip-rule="evenodd" d="M128.012 48.2834C128.012 60.9608 99.3603 71.2427 64.006 71.2427C28.6518 71.2427 0 60.9794 0 48.2834C0 35.5873 28.6518 25.3179 64.006 25.3179C99.3603 25.3179 128.012 35.6183 128.012 48.2834Z" fill="#E7D8C8"/>
<path fill-rule="evenodd" clip-rule="evenodd" d="M125.162 48.2838C125.162 57.3276 100.653 64.6692 70.4188 64.6692C40.185 64.6692 15.6997 57.3462 15.6997 48.2838C15.6997 39.2214 40.2092 31.8984 70.443 31.8984C100.677 31.8984 125.162 39.2523 125.162 48.2838Z" fill="#E2CAB3"/>
<path fill-rule="evenodd" clip-rule="evenodd" d="M100.779 26.7543C100.296 26.4077 100.827 26.0734 100.616 25.6463C100.426 25.2939 100.132 25.0123 99.7768 24.8416C98.7564 24.2226 97.446 24.0988 96.3048 23.8635C94.7892 23.5478 93.3943 22.805 91.9089 22.3531C90.0974 21.796 88.2376 21.4741 86.4744 20.7251C83.1111 19.2952 80.1584 17.011 76.9279 15.2778C73.6698 13.601 70.2653 12.2415 66.7594 11.217C63.9395 10.3566 61.0653 9.68187 58.1789 9.09999C51.3858 6.19061 43.9587 6.19061 36.8335 7.52769C30.8979 8.66049 24.7146 11.2418 21.8344 17.0543C20.4576 19.809 20.0772 23.0526 19.9263 26.1167C19.7658 28.471 20.2355 30.8254 21.2849 32.9259C23.513 37.3395 27.927 40.3541 32.1538 42.4773C36.9845 44.9534 42.5518 46.6124 47.9802 46.4081C51.3073 46.2905 54.9726 45.8757 58.0642 44.5015C60.5822 43.3873 62.4661 41.2084 64.4407 39.3327C66.9002 36.9024 70.0439 35.3278 73.4257 34.8325C77.0486 34.3435 80.7924 35.4515 84.4154 35.6434C87.5734 35.8353 90.7013 36.0643 93.8472 36.4048C95.6889 36.6029 97.7842 36.6957 99.4025 35.631C100.036 35.1823 100.47 34.4945 100.61 33.7183C100.7 33.2751 100.683 32.8163 100.562 32.3812C100.405 31.7622 99.958 31.1432 100.707 30.8027C102.651 29.8927 102.44 27.9552 100.779 26.7543Z" fill="#C66720"/>
<path fill-rule="evenodd" clip-rule="evenodd" d="M100.767 26.7172C100.284 26.3705 100.816 26.0301 100.604 25.6091C100.413 25.2581 100.119 24.9768 99.765 24.8044C98.9521 24.3857 98.0765 24.1095 97.1746 23.9873C97.2168 24.1173 97.2651 24.2535 97.2953 24.3897C97.4199 24.8243 97.4365 25.2839 97.3436 25.7267C97.2017 26.5005 96.7677 27.1856 96.136 27.6333C94.4996 28.7042 92.3862 28.6114 90.5747 28.4133C87.4287 28.0728 84.3009 27.8376 81.1429 27.6519C77.5199 27.4352 73.7822 26.3458 70.1592 26.8348C66.7774 27.3301 63.6337 28.9047 61.1742 31.335C59.1755 33.2106 57.3036 35.3896 54.7796 36.5224C51.694 37.8842 48.0288 38.299 44.6836 38.4166C39.2491 38.6147 33.6999 36.9247 28.8572 34.4796C25.6267 32.8454 22.2935 30.6974 19.9265 27.8004C20.0253 29.5717 20.4883 31.3015 21.2851 32.8764C23.5133 37.2962 27.9273 40.3046 32.1541 42.4278C36.9847 44.8729 42.552 46.5628 47.9805 46.3647C51.2774 46.2471 54.9487 45.8076 58.0282 44.4582C60.5522 43.3377 62.4362 41.1588 64.4107 39.2832C66.8719 36.8553 70.0148 35.2811 73.3957 34.7829C77.0187 34.3001 80.7625 35.402 84.3854 35.6C87.5435 35.7858 90.6713 36.021 93.8173 36.3614C95.6288 36.5595 97.7542 36.6524 99.3725 35.5877C100.004 35.1371 100.438 34.4502 100.58 33.6749C100.667 33.2315 100.65 32.7734 100.532 32.3378C100.375 31.6817 99.928 31.0998 100.671 30.7593C102.651 29.8556 102.428 27.9119 100.767 26.7172Z" fill="#BB5200"/>
<path fill-rule="evenodd" clip-rule="evenodd" d="M56.7601 15.5559C55.6491 15.1907 54.5078 14.9369 53.433 14.454C51.6215 13.6555 49.8825 12.727 47.9985 12.0399C45.6679 11.2392 43.2012 10.94 40.7526 11.1609C36.8337 11.2537 32.7216 12.1203 29.4368 14.2374C29.2738 14.3426 29.1047 14.4602 28.9417 14.584C26.7293 15.8818 24.9237 17.7994 23.7366 20.1118C23.0302 21.5356 22.4384 23.2936 23.0241 24.8659C23.5494 26.2339 25.3972 26.4134 26.5686 26.6177C26.7014 26.6177 26.8343 26.6734 26.9671 26.6982C27.6825 27.0234 28.4353 27.2543 29.2073 27.3853C32.0031 28.4748 34.4184 30.2637 37.039 31.6998C40.505 33.5569 44.3997 33.9531 47.9502 32.0589C49.6574 31.0799 51.1627 29.7701 52.3823 28.2024C54.0075 27.3543 55.4222 26.1369 56.5186 24.643C57.2956 23.4848 58.2498 22.4627 59.3445 21.6161C60.0148 21.1023 61.0352 20.3347 61.1017 19.3814C61.2647 17.0787 58.4629 16.0944 56.7601 15.5559Z" fill="#DA840D"/>
<path fill-rule="evenodd" clip-rule="evenodd" d="M25.0227 22.2848C24.8423 22.3492 24.6765 22.4504 24.5354 22.5823C24.3942 22.7143 24.2806 22.8742 24.2015 23.0524C24.1329 23.1291 24.0741 23.2143 24.0264 23.3061C23.9726 23.4098 23.9397 23.5235 23.9298 23.6404C23.8862 23.7463 23.8705 23.8621 23.8842 23.9762C23.898 24.0902 23.9408 24.1986 24.0083 24.2904C24.3887 24.8413 25.2159 24.1913 25.8801 24.0366L26.1519 24.1171C26.1855 24.1316 26.2234 24.1319 26.2573 24.118C26.2912 24.1041 26.3184 24.0771 26.333 24.0428C26.3549 24.0492 26.3779 24.0507 26.4004 24.0471C26.4229 24.0435 26.4444 24.0349 26.4634 24.022C26.4824 24.009 26.4983 23.992 26.5102 23.9721C26.5221 23.9521 26.5296 23.9298 26.5323 23.9066C26.6289 23.04 26.019 22 25.0227 22.2848Z" fill="#BB5200"/>
<path fill-rule="evenodd" clip-rule="evenodd" d="M44.2246 29.6508C44.1758 29.534 44.1047 29.4284 44.0155 29.3402C43.9264 29.2519 43.8209 29.1829 43.7053 29.137C42.7814 28.6604 40.0823 30.1213 41.0001 31.2974C41.1041 31.4223 41.24 31.5151 41.3925 31.5654C41.545 31.6156 41.7081 31.6215 41.8636 31.5821C42.4209 31.4702 42.942 31.217 43.3792 30.8455C43.7386 30.6648 44.031 30.3694 44.2125 30.0036L44.2729 29.8984C44.2886 29.8567 44.2925 29.8113 44.2839 29.7674C44.2753 29.7235 44.2548 29.6831 44.2246 29.6508Z" fill="#BB5200"/>
<path fill-rule="evenodd" clip-rule="evenodd" d="M55.7514 18.0632C55.2669 18.1508 54.8023 18.3292 54.3807 18.5893C53.8989 18.8269 53.4988 19.209 53.2335 19.685C53.0463 19.8521 52.9134 20.0688 53.0161 20.2173C52.9602 20.2919 52.9098 20.3705 52.8651 20.4526C52.8446 20.5037 52.8418 20.5604 52.8572 20.6134C52.8726 20.6663 52.9052 20.7122 52.9497 20.7435C53.1343 20.8649 53.3389 20.9509 53.5535 20.9973C53.7124 21.0759 53.881 21.1321 54.0547 21.1644C55.2623 21.3873 57.2006 20.5887 57.732 19.425C58.3177 18.1436 56.5183 17.9517 55.7514 18.0632Z" fill="#BB5200"/>
<path fill-rule="evenodd" clip-rule="evenodd" d="M32.2023 14.7759C31.5139 14.3983 30.4814 15.1225 29.95 15.5001C29.4186 15.8777 28.4525 16.6577 28.7423 17.4438C28.7778 17.547 28.8332 17.6418 28.9054 17.7224C29.0309 17.8879 29.2034 18.0095 29.3991 18.0704C29.5948 18.1314 29.8041 18.1288 29.9983 18.0628C30.9644 17.84 33.9715 15.7353 32.2023 14.7759Z" fill="#BB5200"/>
<path fill-rule="evenodd" clip-rule="evenodd" d="M34.3457 23.7829C34.3018 23.76 34.2551 23.7433 34.2068 23.7333C33.5612 23.4914 32.8508 23.5047 32.2142 23.7705C31.7436 23.8285 31.312 24.0675 31.0065 24.439C30.9401 24.5048 30.8872 24.5837 30.8511 24.6709C30.815 24.7581 30.7964 24.8519 30.7964 24.9466C30.7964 25.0414 30.815 25.1351 30.8511 25.2223C30.8872 25.3095 30.9401 25.3884 31.0065 25.4542C31.1575 26.0237 31.8881 26.3889 32.6671 26.4384C33.0508 26.6521 33.4847 26.7524 33.9207 26.7284C34.3567 26.7044 34.7776 26.5568 35.1367 26.3023C36.2297 25.5037 35.2152 24.179 34.3457 23.7829Z" fill="#BB5200"/>
<path fill-rule="evenodd" clip-rule="evenodd" d="M41.5134 13.2473C40.4628 12.8263 39.1827 13.5691 38.5788 14.4296C38.3932 14.6825 38.2844 14.986 38.2662 15.302C38.2479 15.618 38.321 15.9325 38.4762 16.2062L38.5064 16.2495C38.5327 16.2861 38.5609 16.3212 38.5909 16.3547L38.6513 16.4104C38.7829 16.5379 38.9423 16.6313 39.1162 16.6828C39.2084 16.7118 39.3037 16.7284 39.4 16.7323C39.7657 16.8568 40.1643 16.8302 40.5111 16.658C40.8116 16.5066 41.0804 16.2963 41.3021 16.039C41.5693 15.8733 41.8165 15.6759 42.0388 15.451C42.7996 14.6524 42.4735 13.6187 41.5134 13.2473Z" fill="#BB5200"/>
<path fill-rule="evenodd" clip-rule="evenodd" d="M41.2476 22.0308C40.7464 20.0685 39.5025 19.5547 37.6669 19.6599H37.5039H37.4193C37.3577 19.6513 37.2952 19.6668 37.2442 19.7033C37.1054 19.7299 36.9683 19.7651 36.8336 19.8085C36.7467 19.7864 36.6562 19.7844 36.5684 19.8026C36.4807 19.8208 36.398 19.8587 36.3264 19.9137L36.1996 20.0437C36.091 20.0539 35.9872 20.0941 35.8991 20.1599C35.811 20.2257 35.7419 20.3147 35.6992 20.4176C35.6565 20.5204 35.6417 20.6332 35.6564 20.7439C35.6712 20.8546 35.7149 20.9592 35.7829 21.0465C35.8745 21.3312 36.0576 21.5756 36.3022 21.7398C36.4626 21.8318 36.6438 21.8788 36.8276 21.876C37.0148 22.0865 37.214 22.2784 37.4314 22.495L37.4737 22.5507C37.4751 22.7855 37.4974 23.0196 37.5401 23.2502C37.5367 23.5401 37.5549 23.8298 37.5944 24.1168C37.6377 24.3271 37.7278 24.5242 37.8576 24.6928C37.9875 24.8614 38.1537 24.9969 38.3432 25.0887C38.4379 25.192 38.5387 25.2891 38.6451 25.3796C38.778 25.5485 38.9519 25.6786 39.1493 25.7568C39.3467 25.8351 39.5607 25.8588 39.7699 25.8256C39.979 25.7923 40.176 25.7033 40.341 25.5675C40.5061 25.4317 40.6334 25.2537 40.7102 25.0516C41.459 24.4697 41.5254 23.1326 41.2476 22.0308Z" fill="#BB5200"/>
<path fill-rule="evenodd" clip-rule="evenodd" d="M48.6263 18.2053C48.3425 16.6206 46.0479 17.4625 45.9272 18.6572C45.6161 18.9556 45.3675 19.3157 45.1965 19.7157C45.1806 19.7609 45.1824 19.8107 45.2016 19.8546C45.2207 19.8984 45.2557 19.933 45.2992 19.951C45.7908 20.207 46.3185 20.3824 46.8631 20.4709C46.9602 20.4961 47.0619 20.4961 47.159 20.4709C47.4074 20.4672 47.6515 20.4036 47.8715 20.2852C48.1772 20.0479 48.4105 19.7263 48.5442 19.3579C48.6779 18.9895 48.7063 18.5897 48.6263 18.2053Z" fill="#BB5200"/>
<path fill-rule="evenodd" clip-rule="evenodd" d="M51.8268 23.9749C50.7701 22.8607 47.3162 23.6902 47.1713 25.3987C47.0682 25.5153 47.0035 25.6623 46.9864 25.8187C46.9694 25.9752 47.0009 26.1332 47.0764 26.2702C47.152 26.4073 47.2677 26.5165 47.4072 26.5823C47.5468 26.648 47.703 26.6671 47.8536 26.6367C48.2393 26.6109 48.6227 26.5571 49.0009 26.4758C49.2669 26.4313 49.5392 26.4482 49.798 26.5253L49.9791 26.581L50.3837 26.7296C50.5564 26.8288 50.7524 26.8779 50.9503 26.8713C51.1482 26.8648 51.3407 26.8029 51.5068 26.6924C51.8741 26.3573 52.1094 25.8962 52.1683 25.3957C52.2272 24.8953 52.1058 24.39 51.8268 23.9749Z" fill="#BB5200"/>
<path fill-rule="evenodd" clip-rule="evenodd" d="M31.683 19.7652C31.4006 19.6253 31.0909 19.5527 30.7773 19.5527C30.4636 19.5527 30.154 19.6253 29.8715 19.7652C29.5917 19.8025 29.3365 19.9488 29.159 20.1737C28.9135 20.3565 28.6958 20.5755 28.5129 20.8237C28.4716 20.8823 28.4541 20.9552 28.4642 21.0269C28.4744 21.0985 28.5113 21.1633 28.5673 21.2075C29.4368 21.9812 30.9826 21.3375 31.5864 20.4832C31.6085 20.4524 31.6242 20.4173 31.6326 20.38C31.6409 20.3428 31.6416 20.3041 31.6347 20.2666C31.6796 20.2024 31.7143 20.1314 31.7374 20.0561C31.766 20.0096 31.7764 19.9536 31.7663 19.8996C31.7562 19.8456 31.7264 19.7975 31.683 19.7652Z" fill="#BB5200"/>
<path fill-rule="evenodd" clip-rule="evenodd" d="M35.7892 27.788C35.8858 27.6023 35.6503 27.429 35.4933 27.4971C35.0586 27.6889 34.6299 27.8932 34.2132 28.1161C33.6186 27.9804 33.0109 27.914 32.4017 27.918C32.2749 27.918 32.2206 28.0604 32.2206 28.1718C32.2206 28.6299 32.5466 28.8898 32.8244 29.2055C32.455 29.3336 32.1424 29.5926 31.9428 29.936C31.9207 29.968 31.907 30.0054 31.903 30.0444C31.899 30.0834 31.9049 30.1229 31.92 30.1589C31.9352 30.195 31.9591 30.2264 31.9895 30.2502C32.02 30.2741 32.0559 30.2895 32.0938 30.295L32.3836 30.3817C31.9609 31.2545 31.2424 31.8611 31.2363 32.9196C31.2363 33.1549 31.5926 33.2849 31.665 33.0187C31.8293 32.3453 32.2235 31.7546 32.7761 31.3535C32.8123 31.5578 32.8546 31.7559 32.8848 31.9725C32.8931 32.0161 32.9135 32.0563 32.9437 32.0881C32.9738 32.12 33.0123 32.1422 33.0546 32.152C33.0968 32.1619 33.1409 32.1589 33.1815 32.1435C33.2221 32.1282 33.2575 32.101 33.2833 32.0654C33.5732 31.6383 34.1347 30.7717 34.491 31.6878C34.507 31.7294 34.5348 31.7652 34.5709 31.7904C34.607 31.8156 34.6496 31.8291 34.6933 31.8291C34.7369 31.8291 34.7796 31.8156 34.8156 31.7904C34.8517 31.7652 34.8796 31.7294 34.8955 31.6878C34.9559 31.4526 35.1673 29.7627 35.4209 30.066C35.4521 30.1042 35.4945 30.1309 35.5419 30.1421C35.5892 30.1534 35.6389 30.1484 35.6832 30.1281C35.7276 30.1079 35.7643 30.0733 35.7878 30.0297C35.8113 29.986 35.8203 29.9358 35.8134 29.8865C35.7409 29.1374 35.4209 28.4751 35.7892 27.788Z" fill="#5F825C"/>
<path fill-rule="evenodd" clip-rule="evenodd" d="M37.1296 12.5721C37.2383 12.5721 37.2685 12.4298 37.2504 12.3369C37.1719 11.9407 36.876 11.755 36.5982 11.5198C36.9001 11.3639 37.1378 11.1027 37.2685 10.7832C37.2813 10.7514 37.2864 10.7169 37.2832 10.6826C37.28 10.6484 37.2687 10.6155 37.2502 10.5868C37.2317 10.5581 37.2067 10.5345 37.1772 10.518C37.1478 10.5015 37.1149 10.4927 37.0813 10.4922L36.8337 10.4551C37.0813 9.65656 37.6248 9.04992 37.4859 8.14616C37.4557 7.94188 37.1296 7.87379 37.1055 8.10902C37.0512 8.70299 36.7896 9.25692 36.3688 9.66894C36.3084 9.49562 36.248 9.32848 36.1937 9.15516C36.1808 9.11926 36.1583 9.08779 36.1288 9.06435C36.0993 9.0409 36.064 9.02642 36.0269 9.02255C35.9897 9.01868 35.9523 9.02557 35.9188 9.04245C35.8853 9.05933 35.8571 9.08551 35.8374 9.11802C35.6382 9.52038 35.2698 10.356 34.8653 9.58228C34.8451 9.54966 34.8162 9.52378 34.7819 9.50782C34.7476 9.49186 34.7095 9.48651 34.6723 9.49243C34.6351 9.49834 34.6004 9.51527 34.5725 9.54113C34.5445 9.56699 34.5246 9.60066 34.515 9.63799C34.515 9.84845 34.515 11.3217 34.2795 11.0927C34.2485 11.065 34.2096 11.0483 34.1686 11.0449C34.1276 11.0414 34.0867 11.0515 34.0516 11.0736C34.0166 11.0957 33.9894 11.1287 33.9739 11.1677C33.9584 11.2068 33.9555 11.2499 33.9655 11.2908C34.0259 11.5507 34.1225 11.786 34.201 12.0274C33.1432 11.5621 31.9917 11.3647 30.8437 11.4517C30.806 11.4563 30.7708 11.4734 30.7434 11.5003C30.7159 11.5272 30.6978 11.5625 30.6916 11.601C30.6855 11.6394 30.6917 11.6788 30.7093 11.7133C30.727 11.7478 30.7551 11.7755 30.7894 11.7922C32.3956 12.4112 31.1698 12.5474 30.7894 12.6959C30.3486 12.8769 29.9404 13.1321 29.5817 13.4511C28.966 14.0013 28.4454 14.6543 28.042 15.3825C27.9333 15.5558 28.1929 15.7477 28.3439 15.6363C28.8516 15.2462 29.3981 14.9121 29.9742 14.6396C30.1149 14.5677 30.2699 14.5303 30.4271 14.5303C30.5843 14.5303 30.7393 14.5677 30.88 14.6396C30.8255 14.9147 30.7971 15.1946 30.7954 15.4753C30.7998 15.5119 30.8132 15.5468 30.8344 15.5766C30.8555 15.6065 30.8838 15.6303 30.9164 15.6458C30.9491 15.6613 30.9851 15.6679 31.021 15.6652C31.0569 15.6625 31.0915 15.6504 31.1215 15.6301C31.5623 15.2339 32.7337 13.934 33.241 15.401C33.2575 15.4394 33.2846 15.472 33.3189 15.4949C33.3532 15.5177 33.3933 15.5299 33.4342 15.5299C33.4751 15.5299 33.5151 15.5177 33.5494 15.4949C33.5837 15.472 33.6108 15.4394 33.6274 15.401C33.718 15.2401 33.881 15.0234 34.0199 14.8192C34.1648 14.943 34.3158 15.0606 34.4486 15.1968C34.4763 15.2212 34.5098 15.2378 34.5456 15.2451C34.5815 15.2523 34.6186 15.2499 34.6532 15.238C34.6879 15.2262 34.719 15.2053 34.7435 15.1775C34.7679 15.1496 34.7849 15.1157 34.7928 15.0791C34.8532 14.3858 34.8653 13.6925 34.9136 12.9992C35.1309 12.8631 35.3544 12.7207 35.5657 12.5721C36.0853 12.6336 36.61 12.6336 37.1296 12.5721Z" fill="#8DB54F"/>
<path fill-rule="evenodd" clip-rule="evenodd" d="M52.4488 21.5665C52.2737 21.4551 52.0986 21.6842 52.1529 21.8513C52.3159 22.3032 52.4971 22.7551 52.6963 23.1946C52.5354 23.7883 52.4402 24.3988 52.4125 25.0145C52.4125 25.1445 52.5514 25.2064 52.6541 25.2064C53.1069 25.2064 53.3666 24.9092 53.6866 24.6492C53.793 25.0316 54.0256 25.3642 54.3448 25.5901C54.3753 25.6142 54.4113 25.6297 54.4494 25.6353C54.4874 25.6409 54.5263 25.6363 54.5621 25.6219C54.5979 25.6076 54.6295 25.5841 54.6539 25.5536C54.6782 25.523 54.6945 25.4866 54.7011 25.4478C54.7011 25.3487 54.7675 25.2497 54.7977 25.1568C55.6249 25.6273 56.1865 26.3949 57.213 26.4444C57.4424 26.4444 57.5874 26.0977 57.3277 26.0111C56.6756 25.8066 56.1178 25.3668 55.7578 24.773L56.3616 24.6864C56.4047 24.6822 56.4456 24.6648 56.4791 24.6366C56.5125 24.6084 56.537 24.5705 56.5493 24.528C56.5616 24.4854 56.5613 24.44 56.5483 24.3977C56.5353 24.3553 56.5102 24.3179 56.4763 24.2902C56.0778 23.9683 55.2687 23.3555 56.1623 23.0522C56.2029 23.0358 56.2378 23.0073 56.2624 22.9703C56.287 22.9333 56.3001 22.8896 56.3001 22.8448C56.3001 22.8001 56.287 22.7563 56.2624 22.7194C56.2378 22.6824 56.2029 22.6538 56.1623 22.6374C55.9389 22.5632 54.2965 22.266 54.5984 22.0184C54.6357 21.9883 54.6627 21.9467 54.6754 21.8998C54.6881 21.8528 54.6859 21.803 54.669 21.7574C54.6522 21.7119 54.6216 21.673 54.5818 21.6465C54.542 21.6199 54.4949 21.6071 54.4474 21.6099C53.741 21.6656 53.1371 21.9689 52.4488 21.5665Z" fill="#8DB54F"/>
<g style="mix-blend-mode:multiply">
<path fill-rule="evenodd" clip-rule="evenodd" d="M112.554 46.5195C112.554 46.4576 112.554 46.3957 112.554 46.3338C112.554 46.2719 112.554 46.2224 112.554 46.1666C112.554 46.1109 112.554 46.0305 112.524 45.9624C112.494 45.8943 112.524 45.9624 112.524 45.9624C112.254 44.7973 111.773 43.6948 111.105 42.7125C109.69 40.5503 107.891 38.6795 105.803 37.1971C104.644 36.3367 103.436 35.5319 102.277 34.6777C100.955 33.7058 99.7952 32.5792 98.509 31.5826C97.2229 30.586 91.0155 22.025 86.6679 16.5282C84.633 13.953 81.5535 9.8304 76.113 7.97954C72.4538 6.74151 68.8187 7.73193 64.9723 6.94578C62.1282 6.36391 57.7263 6.1782 55.4076 8.18381C52.0382 9.8304 49.5444 12.9007 47.6122 15.8844C46.7719 17.1413 46.1357 18.5293 45.7282 19.9946C45.7282 19.9946 45.7282 20.0751 45.7282 20.1184L45.6195 20.5889C45.6195 20.7189 45.5652 20.8489 45.541 20.9851L45.4686 21.4369C45.4686 21.5979 45.4323 21.7526 45.4203 21.9136C45.4082 22.0745 45.4203 22.1736 45.384 22.3036C45.384 22.6007 45.384 22.8978 45.384 23.195C45.384 23.3992 45.384 23.6035 45.4142 23.814C45.469 24.8803 45.6084 25.9402 45.8309 26.9833C42.6366 27.9738 39.9133 29.8246 36.4353 30.6541C33.1746 31.4279 28.5492 33.3221 27.2751 36.3552C24.733 39.5555 23.8997 43.7277 23.5918 47.5532C23.4382 49.1973 23.5649 50.8563 23.9662 52.4558L24.0024 52.5858C24.0507 52.7592 24.099 52.9263 24.1533 53.0996L24.2983 53.5205L24.4794 54.0034C24.5458 54.1643 24.6243 54.3253 24.6968 54.4862C24.7692 54.6472 24.8115 54.7586 24.884 54.8886C25.0298 55.1901 25.1911 55.4835 25.367 55.7676C25.4878 55.9657 25.6146 56.1576 25.7414 56.3556C27.3412 58.8373 29.3911 60.9808 31.7797 62.6696C34.1467 64.3286 44.3273 72.1901 63.3118 64.0005C68.2149 61.8896 76.0465 56.1266 76.1733 56.1266C87.5918 56.5042 91.1725 57.4946 94.8921 57.3151C94.9785 57.309 95.0653 57.309 95.1517 57.3151C102.162 57.5442 104.445 56.6094 106.83 52.7777L106.896 52.6911C107.017 52.5487 107.138 52.4001 107.246 52.2454C107.414 52.0098 107.567 51.7638 107.705 51.5088C108.254 51.3971 108.79 51.2291 109.306 51.0073L109.396 50.964C109.559 50.8959 109.71 50.8155 109.861 50.735C110.188 50.5575 110.5 50.3503 110.791 50.116L110.869 50.0541C111.101 49.8659 111.317 49.6588 111.516 49.435C111.737 49.2051 111.939 48.9567 112.119 48.6922C112.19 48.585 112.255 48.4734 112.313 48.358C112.313 48.3146 112.349 48.2775 112.367 48.2403C112.385 48.2032 112.433 48.0856 112.464 48.0051C112.481 47.9589 112.495 47.9113 112.506 47.8627C112.532 47.7947 112.552 47.7242 112.566 47.6523C112.579 47.6013 112.589 47.5497 112.596 47.4975L112.633 47.2933V47.1261C112.633 47.058 112.633 46.9961 112.633 46.928C112.636 46.8703 112.636 46.8124 112.633 46.7547C112.56 46.6495 112.56 46.5876 112.554 46.5195Z" fill="#E2CAB3"/>
</g>
<path fill-rule="evenodd" clip-rule="evenodd" d="M105.671 42.5018C105.163 42.1366 105.725 41.7776 105.502 41.3257C105.298 40.952 104.986 40.6532 104.608 40.4715C103.521 39.8524 102.132 39.6791 100.918 39.4315C99.3063 39.0972 97.8208 38.3049 96.2448 37.8221C94.3126 37.2031 92.3441 36.8874 90.4722 36.095C86.8794 34.5784 83.7395 32.1271 80.3097 30.332C76.8482 28.5462 73.2317 27.0956 69.5072 25.9989C66.4881 25.0827 63.4689 24.3709 60.3833 23.7457C53.1796 20.6506 45.2876 20.6506 37.7095 22.0867C31.3995 23.269 24.8298 25.9989 21.7382 32.189C20.301 35.1417 19.9267 38.5649 19.7214 41.8271C19.5521 44.3256 20.0533 46.8238 21.1706 49.051C23.5497 53.7494 28.2173 56.9497 32.7098 59.2029C37.8544 61.8028 43.7599 63.5917 49.5264 63.3812C53.0649 63.2574 56.9596 62.8118 60.2384 61.3571C62.9194 60.1686 64.9241 57.8534 67.0255 55.8602C69.638 53.2762 72.9783 51.6019 76.572 51.0752C80.4245 50.5614 84.4218 51.6942 88.2441 51.9418C91.6014 52.1399 94.9224 52.3937 98.2677 52.7527C100.224 52.9632 102.452 53.0623 104.173 51.9295C104.851 51.4544 105.319 50.7251 105.477 49.8991C105.571 49.4269 105.552 48.9386 105.423 48.4753C105.254 47.782 104.765 47.1754 105.574 46.7978C107.627 45.8383 107.416 43.777 105.671 42.5018Z" fill="#C66720"/>
<path fill-rule="evenodd" clip-rule="evenodd" d="M105.67 42.4587C105.157 42.0935 105.725 41.7344 105.495 41.2825C105.296 40.908 104.985 40.6087 104.608 40.4283C103.742 39.9829 102.809 39.6919 101.848 39.5679C101.903 39.7049 101.95 39.8455 101.987 39.9888C102.111 40.4531 102.127 40.9406 102.035 41.4125C101.877 42.2353 101.411 42.962 100.737 43.4367C99.0162 44.5695 96.7881 44.4705 94.8317 44.26C91.4865 43.901 88.1896 43.641 84.8081 43.4553C80.9617 43.2263 76.9583 42.0687 73.13 42.5887C69.5382 43.1173 66.1989 44.7889 63.5835 47.3675C61.4821 49.3607 59.4835 51.7006 56.8024 52.8705C53.5236 54.3252 49.6289 54.7647 46.0905 54.8947C40.3239 55.1052 34.4124 53.31 29.2738 50.7102C25.8259 48.9769 22.2814 46.6927 19.7454 43.6162C19.829 45.4943 20.3024 47.3324 21.1342 49.0079C23.5495 53.7062 28.199 56.8879 32.6975 59.1597C37.8361 61.7596 43.7476 63.5548 49.5142 63.3443C53.0527 63.2143 56.9474 62.7748 60.2262 61.3139C62.9072 60.1254 64.9059 57.8103 67.0072 55.817C69.6226 53.2349 72.9649 51.5628 76.5598 51.0382C80.4062 50.5183 84.4096 51.6573 88.2318 51.9049C91.5891 52.1029 94.9102 52.3506 98.2554 52.7096C100.212 52.9201 102.44 53.0191 104.161 51.8863C104.497 51.6519 104.784 51.352 105.007 51.0036C105.23 50.6552 105.383 50.2652 105.459 49.8559C105.558 49.3866 105.541 48.8995 105.411 48.4384C105.242 47.7389 104.753 47.1322 105.562 46.7546C107.609 45.8076 107.403 43.7338 105.67 42.4587Z" fill="#BB5200"/>
<path fill-rule="evenodd" clip-rule="evenodd" d="M58.8918 30.5985C57.6935 30.2711 56.5124 29.8806 55.3533 29.4285C53.4332 28.5805 51.5854 27.6024 49.6109 26.8658C47.1252 26.0105 44.4932 25.6944 41.8819 25.9373C37.7094 26.0301 33.3316 26.9525 29.8415 29.1871C29.6664 29.3047 29.4913 29.4223 29.3162 29.5523C26.9665 30.9341 25.0499 32.9741 23.7911 35.433C23.0363 36.9434 22.4084 38.8128 23.0243 40.4842C23.5737 41.9512 25.5483 42.1431 26.8163 42.3412L27.245 42.4341C28.0036 42.783 28.8034 43.0285 29.6241 43.1645C32.5467 44.3097 35.1069 46.2039 37.9208 47.7266C41.6041 49.7261 45.7705 50.1222 49.5143 48.1104C51.3291 47.0686 52.9304 45.6771 54.2302 44.0125C55.9524 43.1092 57.4532 41.8184 58.6201 40.2365C59.4495 39.0029 60.4692 37.9157 61.6392 37.0177C62.3578 36.4729 63.4507 35.6558 63.5111 34.6406C63.662 32.2203 60.6852 31.1865 58.8918 30.5985Z" fill="#DA840D"/>
<path fill-rule="evenodd" clip-rule="evenodd" d="M25.1496 37.76C24.9578 37.8261 24.7815 37.9323 24.6318 38.0719C24.4821 38.2115 24.3624 38.3814 24.2801 38.5709C24.2057 38.6502 24.1427 38.7398 24.0929 38.8371C24.037 38.9491 24.0022 39.0709 23.9903 39.1962C23.9438 39.3092 23.9272 39.4327 23.942 39.5544C23.9569 39.6761 24.0027 39.7916 24.0748 39.8895C24.4794 40.4713 25.3851 39.778 26.0614 39.6171C26.1596 39.6401 26.2564 39.669 26.3512 39.7038C26.3875 39.7169 26.4272 39.716 26.4628 39.7012C26.4984 39.6863 26.5275 39.6586 26.5445 39.6233C26.5679 39.6287 26.5922 39.629 26.6158 39.6243C26.6394 39.6197 26.6618 39.6101 26.6817 39.5961C26.7015 39.5822 26.7183 39.5642 26.7311 39.5433C26.7438 39.5224 26.7522 39.4991 26.7558 39.4747C26.8585 38.5586 26.2063 37.4505 25.1496 37.76Z" fill="#BB5200"/>
<path fill-rule="evenodd" clip-rule="evenodd" d="M45.559 45.5842C45.5077 45.4585 45.4321 45.3448 45.3365 45.2501C45.241 45.1554 45.1277 45.0816 45.0035 45.0333C44.0252 44.5257 41.1389 46.0794 42.1292 47.3298C42.2393 47.4633 42.3836 47.5624 42.5458 47.6161C42.7081 47.6697 42.8817 47.6756 43.047 47.6331C43.6499 47.5213 44.2138 47.2503 44.6834 46.847C45.0683 46.6601 45.3809 46.3462 45.5711 45.9556C45.5954 45.9199 45.6176 45.8827 45.6375 45.8442C45.6514 45.7978 45.6514 45.7482 45.6374 45.7018C45.6234 45.6554 45.596 45.6144 45.559 45.5842Z" fill="#BB5200"/>
<path fill-rule="evenodd" clip-rule="evenodd" d="M57.8046 33.2661C57.2897 33.36 56.7963 33.551 56.3494 33.8294C55.84 34.0813 55.4184 34.4876 55.1417 34.9932C54.9424 35.1665 54.8036 35.4017 54.9122 35.5565C54.8504 35.6335 54.7958 35.7164 54.7492 35.8041C54.728 35.8586 54.7255 35.9188 54.7419 35.975C54.7583 36.0312 54.7928 36.08 54.8398 36.1136C55.0372 36.2483 55.2589 36.3409 55.4919 36.386C55.6597 36.4703 55.8388 36.5287 56.0233 36.5593C57.3034 36.8007 59.3625 35.9403 59.9301 34.7022C60.5279 33.3528 58.6198 33.1609 57.8046 33.2661Z" fill="#BB5200"/>
<path fill-rule="evenodd" clip-rule="evenodd" d="M32.782 29.7685C32.0513 29.3724 30.9705 30.14 30.3667 30.5423C29.7628 30.9447 28.7725 31.7803 29.0563 32.6098C29.0939 32.7189 29.1513 32.8197 29.2254 32.907C29.361 33.0812 29.5452 33.209 29.7534 33.2731C29.9616 33.3373 30.184 33.3348 30.3908 33.266C31.4656 33.0308 34.6659 30.7961 32.782 29.7685Z" fill="#BB5200"/>
<path fill-rule="evenodd" clip-rule="evenodd" d="M35.0643 39.3448C35.015 39.3235 34.9646 39.3049 34.9134 39.289C34.226 39.034 33.4708 39.0495 32.7939 39.3324C32.3008 39.3983 31.8501 39.6525 31.5319 40.0442C31.4607 40.1136 31.4039 40.1972 31.3652 40.2897C31.3264 40.3823 31.3064 40.482 31.3064 40.5828C31.3064 40.6835 31.3264 40.7832 31.3652 40.8758C31.4039 40.9684 31.4607 41.0519 31.5319 41.1213C31.6889 41.7403 32.4679 42.1118 33.2891 42.1675C33.6985 42.3934 34.1606 42.4997 34.6249 42.4745C35.0892 42.4494 35.5379 42.294 35.9218 42.0251C37.0751 41.177 35.9822 39.7657 35.0643 39.3448Z" fill="#BB5200"/>
<path fill-rule="evenodd" clip-rule="evenodd" d="M42.6725 28.153C41.5554 27.7011 40.1968 28.4873 39.5507 29.391C39.3611 29.6577 39.2506 29.9747 39.2324 30.3041C39.2142 30.6335 39.2891 30.9612 39.4481 31.2481C39.4499 31.2645 39.4499 31.2812 39.4481 31.2976C39.475 31.3355 39.5053 31.3707 39.5386 31.4028C39.5578 31.4266 39.5801 31.4475 39.6051 31.4647C39.7445 31.5984 39.9118 31.6979 40.0942 31.7557C40.1944 31.7862 40.2977 31.8049 40.4021 31.8114C40.7992 31.9497 41.2335 31.9208 41.6098 31.7309C41.9284 31.562 42.2131 31.3331 42.4491 31.0562C42.7301 30.8798 42.9913 30.6722 43.228 30.4372C44.0372 29.6448 43.693 28.5554 42.6725 28.153Z" fill="#BB5200"/>
<path fill-rule="evenodd" clip-rule="evenodd" d="M42.3887 37.4818C41.8634 35.3957 40.541 34.8634 38.5846 34.9686H38.4155H38.3249C38.2597 34.9631 38.1944 34.9782 38.1378 35.0119C37.9808 35.0119 37.8238 35.0676 37.6728 35.1048C37.5793 35.0826 37.4823 35.0816 37.3884 35.102C37.2945 35.1223 37.2061 35.1634 37.1294 35.2224L36.9905 35.3586C36.8811 35.3801 36.7789 35.4297 36.6933 35.5028C36.6077 35.5758 36.5416 35.6699 36.5012 35.7763C36.4608 35.8827 36.4473 35.9979 36.4622 36.111C36.477 36.2242 36.5196 36.3316 36.5859 36.4233C36.686 36.7187 36.8794 36.9713 37.1354 37.1414C37.3056 37.2376 37.4966 37.2887 37.6909 37.2899L38.2948 37.9089L38.337 37.9646C38.3432 38.2137 38.3674 38.462 38.4095 38.7075C38.4053 39.0181 38.4255 39.3286 38.4699 39.636C38.5144 39.8595 38.6098 40.0691 38.7483 40.2477C38.8868 40.4262 39.0645 40.5687 39.2669 40.6636C39.3661 40.7938 39.4752 40.9159 39.593 41.0288C40.5168 41.8954 41.4045 41.4806 41.7909 40.6821C42.6182 40.0755 42.6906 38.6517 42.3887 37.4818Z" fill="#BB5200"/>
<path fill-rule="evenodd" clip-rule="evenodd" d="M50.2329 33.427C49.937 31.7371 47.4976 32.6347 47.3647 33.9037C47.0354 34.2218 46.7725 34.605 46.5918 35.0303C46.574 35.0788 46.5753 35.1325 46.5956 35.1799C46.616 35.2274 46.6536 35.2648 46.7005 35.2841C47.2235 35.5477 47.7807 35.7332 48.355 35.835C48.4603 35.8597 48.5697 35.8597 48.675 35.835C48.9379 35.8273 49.1957 35.7596 49.4298 35.6369C50.1182 35.2469 50.3658 34.1699 50.2329 33.427Z" fill="#BB5200"/>
<path fill-rule="evenodd" clip-rule="evenodd" d="M53.6324 39.549C52.5335 38.3791 48.8441 39.2457 48.6871 41.0595C48.2765 41.6785 48.512 42.4275 49.4117 42.3903C49.8176 42.3578 50.2211 42.2978 50.6193 42.2108C50.9036 42.1633 51.1947 42.1823 51.4707 42.2665C51.5332 42.2916 51.5979 42.3103 51.664 42.3222L52.0866 42.4832C52.2726 42.5898 52.4835 42.6422 52.6964 42.6345C52.9093 42.6269 53.1161 42.5596 53.2943 42.4399C54.0672 41.9013 54.2906 40.2362 53.6324 39.549Z" fill="#BB5200"/>
<path fill-rule="evenodd" clip-rule="evenodd" d="M32.2324 35.0735C31.935 34.9296 31.6102 34.855 31.2814 34.855C30.9525 34.855 30.6278 34.9296 30.3304 35.0735C30.033 35.116 29.7618 35.2705 29.5695 35.5068C29.3103 35.7025 29.0804 35.9361 28.8872 36.2001C28.845 36.2634 28.8278 36.3408 28.839 36.4166C28.8502 36.4924 28.889 36.561 28.9476 36.6087C29.8654 37.4258 31.5259 36.7448 32.1539 35.8349C32.1762 35.803 32.192 35.7668 32.2003 35.7285C32.2086 35.6902 32.2093 35.6506 32.2022 35.612C32.2503 35.5445 32.2871 35.4692 32.3109 35.3892C32.3373 35.3357 32.3439 35.2743 32.3295 35.2162C32.315 35.1582 32.2805 35.1075 32.2324 35.0735Z" fill="#BB5200"/>
<path fill-rule="evenodd" clip-rule="evenodd" d="M36.5921 43.5974C36.6947 43.4055 36.4471 43.2198 36.2781 43.2941C35.8192 43.4922 35.3602 43.7088 34.9134 43.9131C34.2916 43.7664 33.6554 43.6937 33.0174 43.6964C32.8785 43.6964 32.8242 43.8512 32.8302 43.9688C32.8302 44.4578 33.1683 44.7302 33.434 45.0645C33.0383 45.2024 32.7041 45.4814 32.492 45.8506C32.4689 45.8847 32.4547 45.9243 32.4508 45.9656C32.4469 46.0069 32.4534 46.0485 32.4698 46.0865C32.4862 46.1245 32.5119 46.1574 32.5443 46.1823C32.5768 46.2071 32.6149 46.2229 32.6551 46.2282C32.7577 46.2282 32.8604 46.2901 32.963 46.3211C32.5162 47.2434 31.7554 47.8934 31.7554 49.0138C31.7554 49.2676 32.1297 49.4038 32.2082 49.1252C32.3847 48.4029 32.8146 47.7726 33.4159 47.3548C33.4521 47.5653 33.5004 47.782 33.5306 47.9738C33.5378 48.021 33.5585 48.0649 33.59 48.1C33.6215 48.1351 33.6625 48.1598 33.7077 48.1711C33.7529 48.1823 33.8004 48.1796 33.8441 48.1632C33.8878 48.1469 33.9258 48.1176 33.9533 48.0791C34.2673 47.6272 34.8591 46.6987 35.2093 47.6767C35.2272 47.7207 35.2573 47.7583 35.296 47.7847C35.3347 47.8112 35.3802 47.8253 35.4267 47.8253C35.4732 47.8253 35.5186 47.8112 35.5573 47.7847C35.596 47.7583 35.6262 47.7207 35.644 47.6767C35.7044 47.4291 35.9339 45.6278 36.1996 45.9497C36.2321 45.9919 36.2774 46.0217 36.3284 46.0345C36.3793 46.0473 36.433 46.0423 36.4809 46.0202C36.5287 45.9982 36.568 45.9604 36.5925 45.9128C36.6171 45.8653 36.6254 45.8107 36.6162 45.7578C36.5437 45.0335 36.2298 44.334 36.5921 43.5974Z" fill="#5F825C"/>
<path fill-rule="evenodd" clip-rule="evenodd" d="M40.6197 23.9937C40.4325 23.8822 40.2454 24.1298 40.3118 24.3032C40.4808 24.786 40.6741 25.2565 40.8794 25.7269C40.7114 26.3596 40.6122 27.0094 40.5835 27.6644C40.5835 27.8006 40.7284 27.8687 40.8371 27.8687C41.2661 27.8108 41.6583 27.5899 41.9361 27.2497C42.0536 27.6583 42.308 28.0113 42.6546 28.2463C42.6867 28.2729 42.725 28.2903 42.7656 28.297C42.8063 28.3036 42.848 28.2992 42.8865 28.2842C42.925 28.2691 42.959 28.244 42.9851 28.2113C43.0111 28.1786 43.0284 28.1394 43.035 28.0977C43.035 27.9925 43.1015 27.8873 43.1377 27.7882C44.0193 28.2896 44.611 29.1005 45.704 29.1563C45.9516 29.1563 46.1025 28.791 45.8308 28.6982C45.1436 28.4857 44.5528 28.0292 44.1642 27.4106C44.3756 27.4106 44.5809 27.3425 44.768 27.3178C44.814 27.3122 44.8573 27.2929 44.8926 27.2622C44.9279 27.2315 44.9536 27.1908 44.9665 27.1452C44.9794 27.0997 44.9789 27.0512 44.9651 27.006C44.9513 26.9607 44.9247 26.9206 44.8888 26.8907C44.4601 26.5502 43.5845 25.9002 44.5507 25.5845C44.5918 25.5653 44.6267 25.5344 44.6512 25.4955C44.6756 25.4565 44.6887 25.4111 44.6887 25.3648C44.6887 25.3184 44.6756 25.2731 44.6512 25.2341C44.6267 25.1951 44.5918 25.1642 44.5507 25.145C44.3091 25.0646 42.5701 24.7489 42.8901 24.4889C42.9311 24.4573 42.9608 24.4129 42.9749 24.3624C42.989 24.3119 42.9867 24.2581 42.9682 24.2091C42.9498 24.1601 42.9163 24.1186 42.8728 24.0909C42.8293 24.0632 42.7781 24.0508 42.7271 24.0556C42.0146 24.1422 41.3202 24.427 40.6197 23.9937Z" fill="#8DB54F"/>
<path fill-rule="evenodd" clip-rule="evenodd" d="M54.2962 36.9863C54.109 36.8749 53.9219 37.1163 53.9822 37.2958C54.1574 37.7787 54.3445 38.2491 54.5559 38.7196C54.385 39.3516 54.2857 40.0017 54.26 40.6571C54.26 40.7933 54.4049 40.8552 54.5136 40.8614C54.9421 40.8017 55.3337 40.5811 55.6126 40.2423C55.7337 40.6491 55.9874 41.0009 56.3311 41.239C56.3632 41.2655 56.4015 41.283 56.4421 41.2896C56.4828 41.2963 56.5245 41.2918 56.563 41.2768C56.6015 41.2618 56.6355 41.2366 56.6616 41.2039C56.6876 41.1712 56.7049 41.1321 56.7116 41.0904C56.7116 40.9852 56.778 40.8799 56.8142 40.7809C57.6958 41.2761 58.2875 42.0932 59.3805 42.1489C59.628 42.1489 59.779 41.7837 59.5073 41.6846C58.8179 41.4767 58.2257 41.0191 57.8407 40.3971L58.4445 40.3104C58.489 40.3024 58.5305 40.2818 58.5641 40.2509C58.5978 40.2199 58.6223 40.18 58.6348 40.1355C58.6474 40.091 58.6476 40.0438 58.6353 39.9992C58.623 39.9546 58.5987 39.9145 58.5653 39.8833C58.1366 39.5428 57.261 38.8929 58.2272 38.5772C58.2701 38.5589 58.3067 38.5279 58.3325 38.4883C58.3583 38.4486 58.3721 38.402 58.3721 38.3543C58.3721 38.3067 58.3583 38.2601 58.3325 38.2204C58.3067 38.1808 58.2701 38.1498 58.2272 38.1315C57.9856 38.0572 56.2406 37.7415 56.5666 37.5125C56.6076 37.4809 56.6373 37.4365 56.6514 37.386C56.6655 37.3355 56.6632 37.2817 56.6447 37.2327C56.6263 37.1837 56.5928 37.1422 56.5493 37.1145C56.5058 37.0868 56.4546 37.0744 56.4036 37.0792C55.6911 37.1039 54.9967 37.4196 54.2962 36.9863Z" fill="#8DB54F"/>
<g style="mix-blend-mode:multiply">
<path fill-rule="evenodd" clip-rule="evenodd" d="M114.202 44.2968C114.202 44.2411 114.202 44.1854 114.232 44.1297L114.269 43.8882C114.272 43.8285 114.272 43.7685 114.269 43.7087C114.269 43.6345 114.269 43.5602 114.269 43.4859V43.2878C114.269 43.2197 114.269 43.1516 114.269 43.0773V42.8731C114.269 42.8112 114.269 42.7431 114.269 42.675L114.232 42.4583C114.232 42.4026 114.232 42.3469 114.196 42.285C114.16 42.2231 114.166 42.1241 114.148 42.0498C113.783 40.7958 113.216 39.6135 112.469 38.5523C110.933 36.3156 109.006 34.389 106.787 32.8698C105.58 32.0093 104.336 31.2232 103.122 30.3937C101.745 29.428 100.513 28.2829 99.1668 27.2986C97.7297 26.2153 90.997 17.3201 86.2509 11.5694C84.0288 8.87051 80.6353 4.54977 75.1827 2.96509C71.5174 1.90038 68.0816 3.3365 64.2775 2.79796C61.4274 2.3337 57.1523 2.5194 55.0872 4.95213C51.9775 7.08774 49.858 10.7399 48.2699 14.2374C47.5722 15.7405 47.0921 17.34 46.8449 18.9852V19.1338C46.8449 19.3071 46.8026 19.4804 46.7845 19.6538L46.7483 20.118C46.7483 20.2852 46.7483 20.4523 46.7483 20.6194C46.7483 20.7866 46.7483 20.9847 46.7483 21.1642C46.7483 21.3437 46.7483 21.4551 46.7483 21.5975C46.7483 21.9317 46.7483 22.2598 46.8147 22.5941L46.9053 23.2874C47.2553 26.1014 48.0981 28.8276 49.3931 31.3346C50.6646 33.7957 52.5799 35.845 54.9242 37.2524L55.6246 37.63C62.8706 41.3441 69.5127 39.7161 72.4473 39.5799C73.4179 39.51 74.3837 39.3819 75.3397 39.1961C76.0582 39.0723 76.8311 38.9237 77.6282 38.7814C80.4722 38.2552 83.6242 37.7043 85.792 37.9209C86.2681 37.9614 86.737 38.0655 87.1868 38.2304C93.2251 40.6632 94.4932 45.832 100.58 48.1347C100.936 48.2709 101.31 48.3947 101.697 48.5123L101.836 48.5494H101.872C104.638 49.3418 108.061 49.5894 110.694 48.3947L111.02 48.2337L111.105 48.1904C112.368 47.5344 113.382 46.4647 113.985 45.151C114.045 45.021 114.094 44.8911 114.142 44.7611L114.124 44.5692L114.202 44.2968Z" fill="#E2CAB3"/>
</g>
<path fill-rule="evenodd" clip-rule="evenodd" d="M114.601 37.0297C113.021 34.7323 111.042 32.7533 108.762 31.1924C107.524 30.3134 106.244 29.5025 105 28.6235C103.587 27.6331 102.319 26.4508 100.942 25.4108C99.4628 24.2966 92.5489 15.1599 87.6579 9.25449C85.3936 6.48749 81.9095 2.04295 76.3059 0.414937C72.544 -0.680721 69.0177 0.798727 65.1109 0.247803C62.1944 -0.160748 57.8227 0.0311471 55.7092 2.5134C52.515 4.70472 50.3352 8.45596 48.7048 12.0463C47.4176 14.6995 46.8841 17.6704 47.165 20.6196C47.4735 23.7526 48.3716 26.7944 49.8098 29.5768C51.1113 32.1064 53.0775 34.2121 55.4858 35.6555C63.2088 39.9886 70.3763 38.1873 73.48 38.0449C76.946 37.8902 85.3935 35.3646 88.618 36.6645C94.8012 39.1406 96.1176 44.4641 102.367 46.8102C106.733 48.4506 113.737 48.921 116.135 43.7585C117.179 41.5052 115.827 38.8806 114.601 37.0297Z" fill="#C66720"/>
<path fill-rule="evenodd" clip-rule="evenodd" d="M116.135 43.7582C113.719 48.9208 106.727 48.4503 102.367 46.81C96.1176 44.4639 94.8012 39.1527 88.618 36.6643C85.3935 35.3643 76.9459 37.9023 73.48 38.0509C70.3823 38.1871 63.2148 39.9946 55.4858 35.6553C53.0801 34.2085 51.1147 32.1036 49.8098 29.5765C48.3735 26.7934 47.4754 23.7519 47.165 20.6194C47.0321 19.3835 47.0544 18.1353 47.2315 16.9053C47.2384 16.9316 47.2384 16.9594 47.2315 16.9857C47.2315 17.1776 47.2315 17.3695 47.2315 17.5614C47.2315 17.7533 47.322 17.8586 47.3824 18.0009C47.4047 18.0501 47.4114 18.1052 47.4017 18.1584C47.392 18.2117 47.3662 18.2605 47.3281 18.2981C47.3281 18.3723 47.3281 18.4466 47.3764 18.5209C48.6988 23.9806 54.8276 27.1871 59.2718 29.6632C65.2482 32.8944 71.9042 34.5796 78.6608 34.572C82.1872 34.6153 85.0192 33.1916 88.153 31.7245C89.2665 31.1796 90.4918 30.9181 91.7248 30.9623C92.9579 31.0065 94.1624 31.355 95.236 31.9783C100.495 34.9744 104.813 40.366 111.135 41.0717C112.788 41.2732 114.464 41.1428 116.068 40.6879L116.261 40.6322C116.582 41.6566 116.538 42.7647 116.135 43.7582Z" fill="#BB5200"/>
<path fill-rule="evenodd" clip-rule="evenodd" d="M102.18 29.2549C100.779 28.215 89.3971 14.2314 88.6363 12.9129C87.8754 11.5944 85.3092 11.0559 84.657 9.75593C84.1849 8.67008 83.4771 7.70913 82.5876 6.94637C81.6981 6.18362 80.6504 5.63923 79.5245 5.35473C77.2359 4.69857 74.9112 4.73571 72.7072 3.73291C71.5996 3.15251 70.4386 2.68597 69.2412 2.34012C67.9868 2.08588 66.7095 1.96968 65.431 1.99347C63.1788 1.99347 60.7695 1.80777 58.5474 2.21013C57.3837 2.43121 56.3442 3.09442 55.6369 4.06717C54.6346 4.95237 54.0247 6.3761 53.5537 7.66985C52.6419 10.1769 51.6879 12.9377 51.7422 15.6799C51.8191 16.9925 52.1732 18.2724 52.78 19.4309C53.3868 20.5895 54.2317 21.5991 55.2565 22.3901C57.2612 23.9624 59.912 24.0862 62.1583 25.0394C63.4746 25.5966 64.4227 26.6798 65.588 27.5155C66.5701 28.1748 67.6847 28.598 68.8487 28.7535C71.4633 29.1807 74.1685 28.184 76.6502 27.466C79.7298 26.5808 82.8153 25.6399 85.9734 26.8098C87.3658 27.3384 88.8227 27.6675 90.3028 27.7879C91.5709 28.4069 93.0019 28.7783 94.2519 29.3602C96.0634 30.2082 97.7601 31.3472 99.6018 32.1581L100.206 32.6348C100.809 33.13 103.672 35.5875 104.487 34.2504C105.731 32.1891 103.515 30.2577 102.18 29.2549Z" fill="#DA840D"/>
<path fill-rule="evenodd" clip-rule="evenodd" d="M55.4983 13.4764C55.3612 13.4719 55.2266 13.5155 55.1169 13.5999C55.0071 13.6843 54.9287 13.8045 54.8945 13.9406C54.7746 14.2302 54.7513 14.5522 54.828 14.8568C54.7882 14.9947 54.8025 15.1431 54.8679 15.2704C54.9333 15.3976 55.0447 15.4935 55.1783 15.5377C56.1927 15.9648 56.8992 16.8872 58.0585 16.9924C58.1322 16.9941 58.2055 16.9805 58.2739 16.9526C58.3424 16.9246 58.4047 16.8828 58.4571 16.8297C58.5095 16.7766 58.5509 16.7132 58.5789 16.6433C58.6069 16.5734 58.6209 16.4984 58.6201 16.4229C58.5202 15.6341 58.1526 14.9065 57.5818 14.3677C57.011 13.829 56.2734 13.5134 55.4983 13.4764Z" fill="#BB5200"/>
<path fill-rule="evenodd" clip-rule="evenodd" d="M62.3935 6.23343C62.2393 5.83316 62.0016 5.4723 61.697 5.17611C61.3924 4.87992 61.0284 4.65556 60.6303 4.51875C60.3948 4.42604 60.1422 4.38794 59.8905 4.40721C59.6389 4.42647 59.3946 4.50262 59.1751 4.63017C59.109 4.63029 59.0436 4.64469 58.9833 4.67242C58.9229 4.70015 58.869 4.74059 58.8249 4.79112C58.5474 5.0968 58.3409 5.46291 58.2211 5.86202C58.1964 5.95552 58.1936 6.05365 58.2127 6.1485C58.2318 6.24335 58.2723 6.33228 58.3311 6.40815C58.3898 6.48401 58.4651 6.54469 58.5508 6.5853C58.6366 6.62591 58.7305 6.64532 58.8249 6.64198C59.7899 6.59345 60.756 6.71488 61.681 7.00101C61.7825 7.02395 61.8881 7.01965 61.9875 6.9885C62.0869 6.95736 62.1768 6.90043 62.2485 6.82324C62.3201 6.74604 62.3711 6.65119 62.3965 6.54786C62.422 6.44453 62.4209 6.33622 62.3935 6.23343Z" fill="#BB5200"/>
<path fill-rule="evenodd" clip-rule="evenodd" d="M70.9925 9.5577C70.235 8.81077 69.4101 8.13922 68.5288 7.55208C67.9122 7.31675 67.2477 7.24437 66.5966 7.34162C66.8298 7.10118 67.1095 6.9135 67.4178 6.79069C67.4979 6.74188 67.5642 6.67257 67.6103 6.58955C67.6563 6.50653 67.6805 6.41266 67.6805 6.31715C67.6805 6.22164 67.6563 6.12776 67.6103 6.04475C67.5642 5.96173 67.4979 5.89241 67.4178 5.8436C67.3031 5.49695 67.1944 5.1503 67.0857 4.80365C67.1883 4.38272 66.7234 3.8937 66.3188 4.18464C65.4916 4.76651 64.7428 5.42267 63.9035 6.04168C63.7507 5.67145 63.5224 5.33903 63.2339 5.06676C62.9454 4.7945 62.6034 4.5887 62.2309 4.46319C62.1567 4.44252 62.0788 4.43942 62.0033 4.45412C61.9277 4.46882 61.8564 4.50094 61.7948 4.54805C61.7331 4.59516 61.6827 4.65603 61.6474 4.72605C61.612 4.79607 61.5927 4.87341 61.5908 4.95222C61.5908 5.68265 60.1295 5.50933 59.5559 5.76313C59.4857 5.80294 59.4254 5.8587 59.3794 5.92614C59.3335 5.99358 59.3033 6.0709 59.2911 6.15217C59.2788 6.23344 59.2849 6.31651 59.3088 6.395C59.3327 6.47349 59.3739 6.54533 59.4291 6.60499L59.5619 6.71022C58.9334 6.94174 58.4065 7.39628 58.0765 7.99159C58.0281 8.07706 58.0033 8.17443 58.0047 8.27326C58.0061 8.37209 58.0338 8.46866 58.0846 8.55263C58.1355 8.63659 58.2077 8.70478 58.2935 8.74988C58.3793 8.79499 58.4755 8.81532 58.5717 8.80869C59.4291 8.80869 60.6186 8.18967 61.5908 8.12777C61.2668 8.40853 60.9965 8.74857 60.7938 9.13057C60.7463 9.21347 60.7209 9.30763 60.72 9.40371C60.719 9.4998 60.7426 9.59447 60.7884 9.67832C60.8342 9.76217 60.9006 9.83228 60.9809 9.88171C61.0613 9.93113 61.1529 9.95814 61.2466 9.96006H61.6935C60.5281 11.4581 59.725 12.789 60.045 14.9803C60.0733 15.0859 60.131 15.1807 60.2111 15.2533C60.2911 15.3258 60.3901 15.3728 60.4958 15.3885C60.6015 15.4043 60.7094 15.3881 60.8063 15.342C60.9032 15.2959 60.9849 15.2218 61.0413 15.1288C61.6415 13.9697 62.4413 12.9316 63.4023 12.0647L63.6378 12.4176C63.7003 12.5206 63.7933 12.6004 63.9032 12.6455C64.0131 12.6905 64.1341 12.6984 64.2487 12.668C64.3633 12.6376 64.4654 12.5705 64.5401 12.4765C64.6149 12.3824 64.6584 12.2664 64.6643 12.1452C64.7005 11.8419 64.7066 11.5262 64.7307 11.2228C64.7549 10.9195 64.767 10.7462 64.7911 10.511C64.8334 10.4243 64.8696 10.3562 64.8938 10.2943C64.972 10.3484 65.0653 10.3745 65.1595 10.3686C65.3782 10.4734 65.5644 10.6381 65.6976 10.8446C65.8308 11.051 65.9058 11.2912 65.9142 11.5385C65.9438 11.6439 66.0024 11.7383 66.083 11.8103C66.1636 11.8824 66.2628 11.929 66.3686 11.9447C66.4745 11.9604 66.5825 11.9444 66.6797 11.8987C66.7769 11.853 66.8591 11.7796 66.9166 11.6871C67.0736 10.9752 67.5627 10.7957 68.39 11.1362C68.451 11.1746 68.5188 11.2002 68.5895 11.2116C68.6602 11.2231 68.7324 11.2201 68.802 11.2028C68.8715 11.1856 68.9371 11.1544 68.9949 11.1111C69.0527 11.0678 69.1015 11.0132 69.1387 10.9505C69.328 10.7632 69.5586 10.6255 69.8108 10.549C70.0631 10.4724 70.3297 10.4594 70.5879 10.511C70.6951 10.5098 70.7997 10.4769 70.889 10.4162C70.9784 10.3554 71.0487 10.2695 71.0915 10.1687C71.1342 10.0679 71.1476 9.95662 71.1301 9.8482C71.1125 9.73978 71.0647 9.63889 70.9925 9.5577Z" fill="#8DB54F"/>
<path fill-rule="evenodd" clip-rule="evenodd" d="M63.7404 8.3817C63.3864 8.68559 63.0701 9.03276 62.7984 9.41546C62.5003 9.4547 62.2069 9.52523 61.9228 9.62592C61.9036 9.62592 61.8852 9.63375 61.8716 9.64768C61.858 9.66161 61.8504 9.6805 61.8504 9.7002C61.8504 9.71991 61.858 9.7388 61.8716 9.75273C61.8852 9.76666 61.9036 9.77449 61.9228 9.77449C62.1636 9.74339 62.4018 9.69372 62.6353 9.62592C62.1532 10.406 61.7312 11.2235 61.3733 12.071C61.1408 12.178 60.9251 12.3199 60.7333 12.492C60.691 12.5291 60.7333 12.6096 60.7876 12.5724C60.9477 12.4407 61.1196 12.3246 61.3009 12.2258C61.156 12.5477 61.005 12.8448 60.848 13.1605C60.7937 13.2657 60.9567 13.371 61.011 13.2595C61.168 12.9438 61.313 12.6405 61.4639 12.3186C61.4391 12.4536 61.4391 12.5922 61.4639 12.7272C61.4684 12.7425 61.4775 12.756 61.4901 12.7655C61.5026 12.7751 61.5177 12.7803 61.5334 12.7803C61.549 12.7803 61.5641 12.7751 61.5767 12.7655C61.5892 12.756 61.5983 12.7425 61.6028 12.7272C61.6028 12.5291 61.5605 12.3248 61.6028 12.1082C61.6086 12.0978 61.6117 12.0861 61.6117 12.0741C61.6117 12.0622 61.6086 12.0504 61.6028 12.0401C61.9438 11.3091 62.3207 10.5964 62.732 9.90448C62.732 10.0964 62.732 10.2821 62.732 10.4678C62.732 10.6535 62.9191 10.604 62.9252 10.4678C62.9463 10.1772 62.9463 9.88551 62.9252 9.59497C63.1906 9.18527 63.4853 8.79629 63.8068 8.43122C63.837 8.40646 63.7826 8.34456 63.7404 8.3817Z" fill="#5F825C"/>
<path fill-rule="evenodd" clip-rule="evenodd" d="M63.3478 7.79994C63.0398 7.64518 62.7439 7.45329 62.4179 7.28616C62.3332 6.90518 62.3332 6.50957 62.4179 6.12859L62.5869 5.9986C62.6764 5.95029 62.7563 5.8852 62.8224 5.80671C62.8278 5.79821 62.8304 5.78823 62.8301 5.77813C62.8297 5.76803 62.8264 5.75828 62.8205 5.75019C62.8145 5.7421 62.8064 5.73607 62.797 5.73289C62.7876 5.72972 62.7775 5.72955 62.7681 5.73242C62.6509 5.75763 62.5438 5.81796 62.4601 5.90575C62.5075 5.67923 62.5398 5.44966 62.5567 5.21864C62.5567 5.1196 62.4179 5.10722 62.3937 5.21864C62.3047 5.50156 62.2381 5.79137 62.1944 6.08526C62.0938 5.92746 61.9807 5.77839 61.8563 5.63957C61.8201 5.63957 61.8563 5.63957 61.8563 5.63957C62.0014 5.82546 62.1157 6.0346 62.1944 6.25859C62.1545 6.5695 62.1771 6.8855 62.2609 7.18711C61.8883 6.97756 61.4768 6.851 61.0532 6.8157C61.0532 6.77856 61.0532 6.74142 61.1015 6.69809C61.1065 6.67885 61.1057 6.65852 61.0992 6.63974C61.0928 6.62097 61.0809 6.60463 61.0653 6.59286C60.9018 6.51776 60.7345 6.45164 60.5641 6.39477C60.5502 6.39071 60.5357 6.38948 60.5214 6.39117C60.507 6.39286 60.4932 6.39743 60.4805 6.40461C60.4679 6.4118 60.4568 6.42146 60.4478 6.43305C60.4389 6.44464 60.4322 6.45792 60.4282 6.47215C60.4243 6.48637 60.4231 6.50126 60.4247 6.51596C60.4264 6.53066 60.4308 6.54488 60.4378 6.55781C60.4449 6.57075 60.4543 6.58214 60.4656 6.59134C60.4769 6.60054 60.4898 6.60736 60.5037 6.61143C60.6426 6.64857 60.7815 6.70428 60.9204 6.73523C60.9204 6.76618 60.9204 6.79094 60.9204 6.8157C60.7294 6.81943 60.54 6.85283 60.3588 6.91475C60.3508 6.91475 60.3431 6.91801 60.3375 6.92381C60.3318 6.92962 60.3286 6.93749 60.3286 6.9457C60.3286 6.9539 60.3318 6.96178 60.3375 6.96758C60.3431 6.97339 60.3508 6.97665 60.3588 6.97665C60.5239 6.94436 60.6919 6.92984 60.86 6.93332C60.7847 7.09772 60.6893 7.25165 60.5762 7.39139C60.5762 7.39139 60.5762 7.44091 60.6184 7.39139C60.7168 7.29345 60.8076 7.18791 60.8902 7.07569C60.9248 7.02482 60.9551 6.97097 60.9807 6.91475C61.7916 7.08881 62.5624 7.42083 63.2512 7.89279C63.3538 7.98564 63.4383 7.84327 63.3478 7.79994Z" fill="#5F825C"/>
</g>
<defs>
<clipPath id="clip0_414_7044">
<rect width="128" height="75" fill="white"/>
</clipPath>
</defs>
</svg>
