<svg width="36" height="34" viewBox="0 0 36 34" fill="none" xmlns="http://www.w3.org/2000/svg">
<g clip-path="url(#clip0_677_3695)">
<path d="M11.5543 1.4841C12.0829 1.43481 12.6082 1.39963 13.138 1.38339C13.4346 1.36795 13.7341 1.36513 14.0337 1.36231C16.108 1.30479 18.1848 1.40023 20.2474 1.64787C22.2739 1.90694 24.2557 2.45076 26.1337 3.26315C27.0429 3.65906 28.2061 4.72294 27.4633 5.79559C27.0918 6.23144 26.6191 6.56997 26.0859 6.78206C23.9485 7.90264 21.7192 8.84149 19.4215 9.58871C14.2511 11.0949 8.70625 10.7884 3.70656 8.71999C2.68906 8.29971 1.73719 7.73427 0.880929 7.04148C-0.0625447 6.25339 -0.252547 5.82398 0.848637 5.04832C4.06041 2.99395 7.73851 1.7694 11.5543 1.4841Z" fill="#D88121"/>
<path d="M24.7516 5.25863C24.0648 7.2591 22.7831 8.99953 21.0762 10.2493C19.361 11.4879 17.3055 12.176 15.1808 12.2229C12.842 12.1977 10.5426 11.585 8.49532 10.4413C7.57441 9.95688 6.683 9.41813 5.82586 8.82792C4.93273 8.31819 4.09646 7.71452 3.33148 7.02734C2.57171 6.17061 3.83225 5.86496 4.48118 5.56786C5.35164 5.17413 6.24467 4.8313 7.15579 4.5411C10.8517 3.36787 14.7711 3.03967 18.6247 3.58074C19.1221 3.65198 24.8745 4.91024 24.7516 5.25863Z" fill="white"/>
<path d="M25.252 3.97398C25.5278 3.86186 25.8283 3.82208 26.1249 3.85842C26.4216 3.89476 26.7046 4.00601 26.9471 4.1816C27.1895 4.35719 27.3834 4.59128 27.5102 4.86164C27.637 5.13199 27.6925 5.42962 27.6716 5.72624C27.2715 11.641 26.8023 17.5451 26.4746 23.4564C26.4419 23.9292 26.4108 24.4083 26.3641 24.8777C26.1096 27.2495 25.5337 29.6692 23.9752 31.4925C22.5185 33.1013 20.583 34.2037 18.4477 34.6408C16.3255 35.0681 14.1601 35.2577 11.9919 35.2061C10.4042 35.1795 8.83849 34.8099 7.403 34.1226C5.60642 33.2429 4.74008 31.802 3.99872 29.9401C2.49636 26.3005 1.82648 22.468 1.33317 18.5946C0.839874 14.7212 0.290114 11.0004 0.00219983 7.20572C-0.232484 4.12976 2.73219 5.79559 4.74478 6.10688C9.80154 6.94871 14.9675 6.79064 19.9473 5.64172C21.748 5.19135 23.5194 4.63446 25.252 3.97398Z" fill="#F4BC2F"/>
<path d="M27.9738 27.7277C27.5528 27.7518 27.1302 27.7061 26.7232 27.5922C25.9501 27.3533 25.2565 26.9071 24.7187 26.3026C24.1809 25.698 23.8198 24.9587 23.675 24.1659C23.5544 23.4197 23.5951 22.6576 23.7943 21.9308C23.9935 21.2039 24.3467 20.5292 24.8301 19.9516C25.91 18.6317 27.3962 17.9485 28.846 17.2803L29.5364 16.9409C30.5756 16.4844 31.5317 15.8611 32.3668 15.0958C33.117 14.4166 33.6167 13.506 33.787 12.5077C33.8519 12.082 33.8114 11.6462 33.669 11.2381C33.5267 10.8299 33.2868 10.4618 32.9701 10.1656C32.594 9.88908 32.1545 9.71128 31.6926 9.64871C31.2307 9.58615 30.7613 9.64086 30.3281 9.80775C29.3183 10.2126 28.4569 10.9123 27.8563 11.8156C27.1794 12.8393 26.6079 13.9289 26.1501 15.068C26.1017 15.2194 26.022 15.3589 25.9161 15.4774C25.8102 15.5959 25.6805 15.6909 25.5352 15.7562C25.3899 15.8215 25.2322 15.8558 25.0724 15.8568C24.9125 15.8578 24.7539 15.8254 24.6068 15.7619C24.4597 15.6983 24.3273 15.605 24.2181 15.4878C24.1089 15.3706 24.0253 15.2321 23.9727 15.0813C23.9201 14.9304 23.8996 14.7706 23.9125 14.6119C23.9254 14.4532 23.9715 14.2992 24.0478 14.1598C24.5599 12.861 25.2069 11.62 25.9783 10.4569C26.8544 9.15691 28.1198 8.1666 29.5962 7.6253C30.4004 7.33343 31.2676 7.25163 32.1158 7.38766C32.9639 7.52368 33.7648 7.87302 34.4425 8.40256C35.064 8.95058 35.5391 9.64379 35.8246 10.419C36.1101 11.1942 36.1968 12.0268 36.077 12.8408C35.8377 14.3426 35.1038 15.7186 33.9905 16.7527C32.9784 17.6965 31.8129 18.4629 30.5429 19.0199L29.8132 19.3617C28.5481 19.9406 27.3635 20.4941 26.6174 21.4311C26.3451 21.7479 26.1429 22.1186 26.0239 22.5193C25.9049 22.9199 25.8716 23.3416 25.9262 23.7572C25.987 24.1352 26.1502 24.4903 26.3981 24.7841C26.6459 25.078 26.9691 25.2994 27.3327 25.4245C27.649 25.5093 27.9836 25.4906 28.2868 25.3713C28.5901 25.252 28.846 25.0383 29.0169 24.7619C29.0772 24.6237 29.1095 24.4749 29.1119 24.3238C29.1144 24.1728 29.087 24.0225 29.0312 23.8815C28.9953 23.7623 28.9354 23.6515 28.8551 23.5558C28.7749 23.4601 28.6759 23.3817 28.5644 23.3253C28.3046 23.1925 28.1044 22.9667 28.0042 22.6936C27.9041 22.4205 27.9116 22.1205 28.0252 21.8543C28.1387 21.5882 28.3499 21.3757 28.6159 21.2601C28.882 21.1444 29.183 21.1341 29.458 21.2313C29.8567 21.4098 30.2151 21.6676 30.511 21.9887C30.807 22.3098 31.0343 22.6874 31.1788 23.0982C31.3457 23.5308 31.4218 23.9922 31.4025 24.4539C31.3831 24.9156 31.2687 25.3676 31.0662 25.7819C30.7666 26.347 30.3239 26.8236 29.7817 27.1647C29.2395 27.5059 28.6165 27.6999 27.9738 27.7277Z" fill="#F4BC2F"/>
<path d="M21.2008 31.1365C19.5308 31.2308 19.1875 33.1264 20.0004 34.1222C21.078 33.721 22.0784 33.1406 22.9592 32.4055C22.8647 32.0208 22.6355 31.6815 22.313 31.4488C21.9905 31.216 21.596 31.1053 21.2008 31.1365Z" fill="white"/>
<path d="M20.7978 14.8859C18.4865 15.0226 18.7229 18.6039 21.0358 18.4735C23.3486 18.3431 23.117 14.7541 20.7978 14.8859Z" fill="white"/>
<path d="M26.4512 23.4202C26.4895 22.6674 26.5419 21.9179 26.5754 21.1729C26.4415 21.1553 26.3064 21.1489 26.1716 21.1535C23.8829 21.292 24.0946 24.7966 26.3684 24.7346C26.399 24.3091 26.4236 23.8583 26.4512 23.4202Z" fill="white"/>
<path d="M17.7941 12.2198C20.1055 12.0831 19.869 8.50184 17.5499 8.63369C15.2308 8.76554 15.475 12.3517 17.7941 12.2198Z" fill="white"/>
<path d="M26.9906 6.20776C24.673 6.33954 24.9108 9.92515 27.2268 9.78709L27.4159 9.74327C27.4999 8.5811 27.5818 7.41942 27.6616 6.25822C27.4424 6.20138 27.2151 6.18428 26.9906 6.20776Z" fill="white"/>
<path d="M18.879 23.5068C16.5677 23.6435 16.8041 27.2248 19.1217 27.0866C21.4393 26.9485 21.1966 23.3687 18.879 23.5068Z" fill="white"/>
<path d="M1.58477 20.4421L1.54071 20.4523C1.71058 21.6278 1.91344 22.8023 2.1367 23.9787C4.10969 23.561 3.78122 20.3179 1.58477 20.4421Z" fill="white"/>
<path d="M13.0738 35.173C13.2036 34.8938 13.2585 34.5854 13.2333 34.2776C13.208 33.9698 13.1034 33.6731 12.9296 33.4163C12.7558 33.1595 12.5188 32.9512 12.2414 32.8118C11.964 32.6723 11.6556 32.6063 11.3463 32.6202C11.0752 32.635 10.8117 32.7124 10.5767 32.8464C10.3417 32.9804 10.1415 33.1672 9.99214 33.3921C9.84273 33.617 9.74813 33.8738 9.71579 34.1423C9.68346 34.4108 9.71428 34.6836 9.80582 34.9392C10.5057 35.102 11.221 35.1861 11.9385 35.19L13.0738 35.173Z" fill="white"/>
<path d="M11.2453 15.4771C8.93397 15.6138 9.16408 19.1966 11.4817 19.0584C13.7994 18.9203 13.5629 15.339 11.2453 15.4771Z" fill="white"/>
<path d="M0.98036 12.6498C0.834289 12.6675 0.690666 12.7008 0.551955 12.749C0.700046 13.9168 0.855952 15.0894 1.00404 16.2572L1.22885 16.2515C3.53279 16.0961 3.29515 12.5117 0.98036 12.6498Z" fill="white"/>
<path d="M9.20287 24.757C6.89155 24.8937 7.12796 28.475 9.43928 28.3383C11.7506 28.2016 11.5205 24.6189 9.20287 24.757Z" fill="white"/>
<path d="M7.16495 12.3867C9.48258 12.2486 9.24616 8.66725 6.92853 8.80539C4.61089 8.94353 4.85362 12.5234 7.16495 12.3867Z" fill="white"/>
<g style="mix-blend-mode:multiply">
<path d="M23.9722 31.4897C25.4996 29.6733 26.0946 27.2485 26.3176 24.8834C26.3644 24.4138 26.3955 23.9346 26.4282 23.4617C26.7559 17.5488 27.2253 11.643 27.6255 5.72664C27.6465 5.42994 27.5909 5.13223 27.464 4.8618C27.3372 4.59137 27.1433 4.35722 26.9008 4.18158C26.6583 4.00594 26.3752 3.89466 26.0784 3.85831C25.7816 3.82196 25.4811 3.86175 25.2053 3.9739C24.8341 4.11973 24.4725 4.25004 24.1172 4.37889C24.097 5.56693 24.0986 6.76318 24.1051 7.95167C24.1133 9.64502 24.1199 11.3321 24.0478 13.0241C23.9042 17.3785 22.9973 21.9098 20.3565 25.3537C18.3395 27.9176 15.5233 29.7387 12.3459 30.5337C9.6868 31.1856 6.90318 31.1801 4.23634 30.518C4.94274 32.0961 5.79387 33.3349 7.40773 34.1177C8.84365 34.8051 10.4098 35.1749 11.998 35.2014C14.1669 35.2531 16.3328 35.0634 18.4557 34.636C20.5867 34.1971 22.5179 33.0956 23.9722 31.4897Z" fill="#E8E8E8"/>
</g>
</g>
<defs>
<clipPath id="clip0_677_3695">
<rect width="36" height="34" fill="white"/>
</clipPath>
</defs>
</svg>
