<svg width="36" height="40" viewBox="0 0 36 40" fill="none" xmlns="http://www.w3.org/2000/svg">
<path d="M17.3608 50.4272C16.562 50.4287 15.7653 50.3439 14.9845 50.1744C13.6198 49.8932 12.3342 49.3119 11.2205 48.4723C10.1067 47.6328 9.19251 46.556 8.54363 45.3194C8.02874 44.1628 7.64625 42.9513 7.40348 41.7083L7.34747 41.4715C6.54737 38.0529 5.53923 34.4378 3.67898 31.1717C3.37894 30.646 3.0509 30.1204 2.73485 29.6148C1.97025 28.4701 1.32288 27.2508 0.802596 25.9756C0.00248912 23.7888 0.150509 21.6141 1.24266 20.1817C1.38652 19.9591 1.57371 19.768 1.793 19.6197C2.01229 19.4715 2.25916 19.3692 2.51883 19.319C2.67705 19.2998 2.83752 19.3134 2.99028 19.359C3.14305 19.4045 3.28487 19.481 3.40694 19.5838C3.50217 19.66 3.58027 19.7555 3.63611 19.864C3.69196 19.9726 3.72429 20.0918 3.73099 20.2138H3.47095C3.46469 20.1287 3.44083 20.0459 3.40088 19.9706C3.36093 19.8953 3.30577 19.8291 3.23892 19.7764C3.14394 19.6973 3.03412 19.6381 2.91593 19.6022C2.79775 19.5664 2.6736 19.5547 2.55083 19.5678C2.10013 19.6708 1.70621 19.9438 1.45068 20.3301C0.414544 21.6983 0.250522 23.7728 1.05063 25.8753C1.56651 27.1414 2.20993 28.3514 2.97089 29.4864C3.28693 29.996 3.61497 30.5216 3.91901 31.0513C5.78326 34.3415 6.8034 37.9767 7.60351 41.4153L7.65951 41.6521C7.8972 42.8746 8.27301 44.0659 8.77966 45.2031C9.41022 46.4047 10.2989 47.451 11.3816 48.2663C12.4643 49.0816 13.714 49.6456 15.0405 49.9176C17.7227 50.4508 20.5056 50.0724 22.9496 48.8423C23.9281 48.4049 24.8116 47.7792 25.5499 47.0006C26.301 46.0889 26.8799 45.0473 27.2581 43.9271C27.9262 42.1697 28.4583 40.3159 28.9384 38.5304C29.6785 35.8662 30.4426 33.1096 31.7387 30.6139C32.1388 29.8837 32.5388 29.1654 32.9629 28.4713C33.7569 27.2255 34.4269 25.9044 34.9632 24.5271C35.4232 23.2191 35.4432 22.1196 35.0272 21.3172C34.8811 21.0496 34.6782 20.8174 34.4328 20.6371C34.1874 20.4569 33.9054 20.3329 33.607 20.2739C33.3986 20.2245 33.1816 20.2245 32.9733 20.274C32.765 20.3234 32.571 20.421 32.4068 20.5588L32.2348 20.3622C32.4278 20.1966 32.6567 20.0784 32.9032 20.0171C33.1498 19.9558 33.4072 19.9531 33.655 20.0091C33.9936 20.0792 34.3127 20.2235 34.5893 20.4316C34.8659 20.6396 35.0933 20.9064 35.2552 21.2128C35.7073 22.0956 35.6873 23.2431 35.2032 24.6234C34.6614 26.0181 33.9805 27.3543 33.1709 28.6117C32.7709 29.3059 32.3308 30.0201 31.9708 30.7423C30.6906 33.214 29.9305 35.9585 29.1944 38.6067C28.6943 40.4042 28.1783 42.262 27.5022 44.0274C27.1154 45.1786 26.5215 46.2489 25.7499 47.1852C24.9874 47.9886 24.0754 48.6347 23.0656 49.0871C21.2875 49.9552 19.3383 50.4131 17.3608 50.4272Z" fill="#AB8DA8"/>
<path d="M20.2973 3.70678C20.5041 3.37748 20.6226 3.00015 20.6413 2.61139C20.6639 2.4368 20.648 2.25936 20.5948 2.09159C20.5416 1.92382 20.4523 1.7698 20.3333 1.64039C20.2333 1.54409 20.1092 1.46786 20.0172 1.36353C19.9252 1.25921 19.8812 1.15088 19.8052 1.05056C19.7228 0.942949 19.6168 0.855835 19.4954 0.79599C19.3739 0.736144 19.2404 0.705178 19.1051 0.705497C18.8291 0.705497 18.537 0.833894 18.305 0.705497C18.161 0.633274 18.065 0.488827 17.905 0.408579C17.7543 0.331699 17.5816 0.310394 17.4169 0.348392C17.273 0.398718 17.1211 0.421847 16.9688 0.416603C16.7528 0.384504 16.6048 0.191908 16.4128 0.0835731C16.314 0.0329556 16.2055 0.0046074 16.0947 0.000516245C15.9839 -0.00357491 15.8736 0.01669 15.7714 0.0598901C15.6693 0.10309 15.5778 0.16818 15.5033 0.250594C15.4289 0.333009 15.3734 0.430754 15.3406 0.536976C15.3145 0.6383 15.3145 0.744608 15.3406 0.845932C15.3846 1.09069 15.5526 1.2873 15.5646 1.53205C15.5766 1.77681 15.4286 1.98947 15.5646 2.20614C15.7007 2.42281 15.9007 2.43084 15.9967 2.63547C16.1247 2.91232 15.9967 3.27344 16.1127 3.57036C16.1727 3.75894 16.2047 4.02778 16.3807 4.14815C16.6248 4.31667 17.1569 4.17624 17.4489 4.14815L18.581 4.05586C19.0811 4.00771 19.6972 4.05586 20.1493 3.80709C20.2038 3.78219 20.2539 3.74829 20.2973 3.70678Z" fill="#3B2645"/>
<path d="M16.4566 3.53013C16.4169 3.47542 16.3649 3.4309 16.3047 3.40021C16.2446 3.36952 16.1781 3.35352 16.1106 3.35352C16.0431 3.35352 15.9766 3.36952 15.9164 3.40021C15.8563 3.4309 15.8043 3.47542 15.7645 3.53013C15.4165 3.93137 16.0046 4.73386 16.4566 4.78201C16.4829 4.36513 16.4829 3.94701 16.4566 3.53013Z" fill="#E0855C"/>
<path d="M22.0773 10.2513C21.9719 10.9271 21.8303 11.5968 21.6533 12.2575C21.6253 12.3819 21.6013 12.5022 21.5853 12.6186C21.5693 12.735 21.5533 12.8232 21.5333 12.9717C21.5333 12.9998 21.5333 13.0319 21.5333 13.06C21.5333 13.1563 21.5053 13.2566 21.4933 13.3649L20.9892 18.0795C17.8568 18.9422 14.5883 18.0795 14.5883 18.0795C14.5883 18.0795 14.5883 18.0193 14.5883 17.9029C14.5363 17.3693 14.3763 15.672 14.2163 13.7581C14.2163 13.7581 14.2163 13.73 14.2163 13.718C14.2179 13.6886 14.2179 13.6591 14.2163 13.6297C14.1483 12.8272 14.0843 11.9766 14.0323 11.1661C13.9362 9.75775 13.8762 8.45772 13.8882 7.65123C13.8882 7.35431 14.5803 7.38641 15.0524 7.32221C15.4004 7.27406 15.7565 7.24196 16.0645 7.22591C16.3726 7.20986 16.6046 7.20184 16.7606 7.20184H16.9366C16.9366 7.20184 16.9767 6.74041 16.9767 6.7364L17.0847 5.6049C17.1372 5.61848 17.1907 5.62787 17.2447 5.63298C17.3437 5.65159 17.444 5.66233 17.5447 5.66508C17.6767 5.66508 17.8008 5.66508 17.9168 5.66508L18.0888 5.64502H18.1888C18.3008 5.62496 18.4088 5.60089 18.5089 5.5728C18.6089 5.54471 18.6409 5.53267 18.7049 5.51261C18.9971 5.41868 19.2746 5.28359 19.529 5.11137L19.565 5.0873L19.633 5.03514L19.681 4.99902C19.681 5.0552 19.681 5.07927 19.681 5.10335C19.649 5.36817 19.613 5.70521 19.597 6.03824C19.597 6.27096 19.573 6.49967 19.565 6.69627C19.557 6.89288 19.493 7.17776 19.633 7.27807C19.683 7.30623 19.7369 7.32653 19.793 7.33826C20.0126 7.37304 20.2349 7.38781 20.4571 7.3824C20.5251 7.3824 20.5931 7.3824 20.6611 7.3824C20.8317 7.37243 21.0027 7.37243 21.1732 7.3824C21.2924 7.38205 21.4104 7.40566 21.5204 7.45183C21.6303 7.49801 21.7299 7.56581 21.8133 7.65123C21.917 7.80177 21.9829 7.97522 22.0053 8.15679L22.0533 8.48581C22.1295 9.07138 22.1375 9.66384 22.0773 10.2513Z" fill="#FFEDE5"/>
<path d="M19.665 4.9707C19.6109 5.25785 19.4941 5.52941 19.3228 5.76585C19.1516 6.0023 18.9303 6.19775 18.6748 6.33817C18.4192 6.47859 18.1359 6.56048 17.845 6.57796C17.5542 6.59543 17.2631 6.54806 16.9927 6.43925L17.0687 5.60868C17.5217 5.69633 17.9883 5.6847 18.4365 5.57458C18.8846 5.46447 19.3037 5.25847 19.665 4.9707Z" fill="#E0855C"/>
<path d="M16.5367 2.32647C16.3047 2.56722 16.2847 3.10488 16.2687 3.69872C16.2087 5.5043 16.7488 6.06604 17.6649 6.16635C18.581 6.26666 19.5451 5.90956 19.7412 4.24039C19.8412 3.4018 19.9452 2.63543 19.6411 2.2703C19.2051 1.73264 17.2408 1.58819 16.5367 2.32647Z" fill="#FFEDE5"/>
<path d="M19.6053 3.99582C19.6053 3.99582 19.8853 3.24951 20.3294 3.64674C20.7735 4.04397 20.1614 5.17146 19.4813 5.0872C19.4893 5.0872 19.3973 4.25261 19.6053 3.99582Z" fill="#FFEDE5"/>
<path d="M20.1333 3.98781C20.0283 4.02071 19.9343 4.08176 19.8613 4.16436C19.7787 4.23357 19.7118 4.31978 19.6653 4.41714C19.6653 4.44522 19.6933 4.46528 19.7133 4.44522C19.7697 4.38923 19.8231 4.3303 19.8733 4.26868C19.9098 4.30904 19.9549 4.34058 20.0053 4.36096C20.0453 4.36096 20.0773 4.32485 20.0613 4.29275C20.0336 4.25026 19.9967 4.2146 19.9533 4.18843C20.028 4.14047 20.0989 4.08681 20.1653 4.02793C20.1666 4.02311 20.1667 4.01805 20.1657 4.01318C20.1646 4.0083 20.1625 4.00373 20.1594 3.99984C20.1562 3.99595 20.1523 3.99283 20.1478 3.99074C20.1433 3.98865 20.1383 3.98765 20.1333 3.98781Z" fill="#E0855C"/>
<path d="M17.0569 3.65853C17.0569 3.65853 16.9009 3.71471 16.9249 3.43785C16.9489 3.161 17.0569 3.22519 17.0569 3.22519C17.0569 3.22519 17.1649 3.22519 17.1489 3.44186C17.1329 3.65853 17.0569 3.65853 17.0569 3.65853Z" fill="#3B2645"/>
<path d="M18.6289 3.65853C18.6289 3.65853 18.4769 3.71471 18.5009 3.43785C18.5249 3.161 18.6289 3.22519 18.6289 3.22519C18.6289 3.22519 18.7369 3.22519 18.7209 3.44186C18.7049 3.65853 18.6289 3.65853 18.6289 3.65853Z" fill="#3B2645"/>
<path d="M17.2249 2.82018C17.162 2.78449 17.0895 2.76954 17.0177 2.77746C16.9459 2.78538 16.8784 2.81577 16.8248 2.86432C16.8221 2.86981 16.8208 2.8759 16.8211 2.88201C16.8214 2.88813 16.8232 2.89408 16.8264 2.8993C16.8296 2.90451 16.8341 2.90883 16.8394 2.91183C16.8447 2.91484 16.8507 2.91644 16.8568 2.91648C16.9128 2.91648 16.9608 2.88438 17.0168 2.88037C17.0755 2.87757 17.1341 2.88714 17.1888 2.90846C17.2409 2.92451 17.2769 2.84426 17.2249 2.82018Z" fill="#3B2645"/>
<path d="M18.865 2.95662C18.801 2.79613 18.5249 2.78409 18.4049 2.88039C18.3991 2.88489 18.3944 2.89066 18.3912 2.89727C18.3879 2.90388 18.3862 2.91114 18.3862 2.9185C18.3862 2.92587 18.3879 2.93313 18.3912 2.93974C18.3944 2.94635 18.3991 2.95212 18.4049 2.95662C18.4768 2.96263 18.5491 2.96263 18.6209 2.95662C18.6791 2.96602 18.7357 2.98358 18.789 3.00878C18.7959 3.01889 18.8065 3.02584 18.8185 3.0281C18.8305 3.03036 18.8429 3.02774 18.853 3.02082C18.863 3.0139 18.87 3.00325 18.8722 2.99121C18.8745 2.97918 18.8719 2.96673 18.865 2.95662Z" fill="#3B2645"/>
<path d="M17.3728 4.95075C17.7103 4.99512 18.0533 4.93639 18.3569 4.78223C18.3115 4.88929 18.2443 4.98565 18.1595 5.06512C18.0748 5.14458 17.9744 5.20539 17.8649 5.24365C17.5168 5.33995 17.3728 4.95075 17.3728 4.95075Z" fill="white"/>
<path d="M15.3525 7.64679C16.2726 8.29279 16.3566 9.54868 15.9086 10.5518C15.6045 11.2219 15.0404 11.6913 14.7084 12.3253C14.3624 12.9401 13.9606 13.5217 13.5082 14.0626C12.5161 15.3266 11.572 16.4701 11.2079 16.9034C9.95576 18.4041 7.32341 20.3862 6.37528 21.0763C6.15925 21.2368 6.03124 21.3251 6.03124 21.3251C6.03124 21.3251 5.12312 20.8476 5.36315 19.9649C5.36315 19.9649 8.96363 16.129 9.4957 15.3466C10.0837 14.3296 10.6178 13.2823 11.0959 12.2089C11.7093 11.0186 12.3481 9.84426 13.0122 8.68601C13.3162 8.15236 13.7043 7.48228 14.3724 7.36191C14.642 7.33152 14.9142 7.38922 15.1485 7.52642C15.2192 7.56161 15.2874 7.60184 15.3525 7.64679Z" fill="#FFEDE5"/>
<path d="M5.36325 19.9691C5.46179 19.9615 5.56076 19.9615 5.65929 19.9691C5.65929 19.9691 6.52341 20.4506 6.37539 21.0765C6.37539 21.0765 6.28338 21.1608 6.13936 21.2892C5.99534 21.4176 5.83932 21.57 5.65129 21.7626C5.46327 21.9552 5.03521 22.5651 4.85118 22.5129C4.80829 22.4971 4.77082 22.4692 4.74317 22.4327L4.37112 22.0315C4.16309 21.7987 3.81505 21.4055 4.07908 21.0966C3.88705 21.2129 3.43899 21.4978 3.21897 21.3614L3.12695 21.2129C3.12695 21.2129 3.78704 20.7194 4.05908 20.4746C4.42606 20.166 4.88473 19.9882 5.36325 19.9691Z" fill="#FFEDE5"/>
<path d="M16.4446 13.7939C16.4433 13.8153 16.4433 13.8368 16.4446 13.8581C16.4446 13.8581 16.4806 13.8581 16.4726 13.8581L16.4446 13.7939Z" fill="#D6BED3"/>
<path d="M17.929 26.7984C17.561 29.7555 17.1289 32.3275 17.1289 32.3275C17.1889 33.0417 17.2169 33.8161 17.2169 34.6105C17.2169 36.1674 17.1129 37.8205 16.9809 39.277C16.8129 41.1347 16.5808 42.7156 16.4808 43.5101V43.6104C16.6289 48.8787 15.1327 49.5768 14.4326 48.4253C13.7325 47.2737 14.4326 43.8792 14.4326 43.8792C14.4348 43.8485 14.4348 43.8177 14.4326 43.7869C14.138 42.2105 13.9416 40.6171 13.8445 39.0162C13.6044 35.1402 14.0165 32.488 13.9685 32.0065C13.1324 23.5804 14.3005 18.934 14.3005 18.934C14.4829 18.2589 14.8122 17.6327 15.2647 17.1004C16.1168 16.1775 17.1409 16.4102 17.785 17.5377C17.8527 17.6533 17.9142 17.7726 17.969 17.8948C18.2315 18.5424 18.3804 19.2307 18.4091 19.9291C18.4731 21.6745 18.2291 24.3669 17.929 26.7984Z" fill="#FFEDE5"/>
<path d="M22.0616 38.8114C21.9685 40.4457 21.7735 42.0726 21.4775 43.6824L21.4415 43.879C21.4415 43.879 22.1416 47.2856 21.4415 48.4251C20.7414 49.5646 19.2612 48.8986 19.3932 43.6824C19.3932 43.6583 19.3932 43.6343 19.3932 43.6142C19.2812 42.8599 19.0572 41.2268 18.8811 39.2928C18.7451 37.8243 18.6411 36.1792 18.6411 34.6224C18.6411 33.8199 18.6731 33.0495 18.7331 32.3313C18.7331 32.3313 18.2891 29.7594 17.933 26.8062C17.633 24.3707 17.385 21.6783 17.489 19.949C17.5189 19.2503 17.6691 18.562 17.933 17.9147C17.9854 17.7887 18.0469 17.6666 18.117 17.5496C18.8571 16.2616 20.0893 16.1492 20.9974 17.6017C21.2576 18.0228 21.462 18.476 21.6055 18.9499C21.6055 18.9499 22.7737 23.5842 21.9376 32.0224C21.8775 32.4958 22.2736 35.0557 22.0616 38.8114Z" fill="#FFEDE5"/>
<path d="M5.26716 22.5734C5.34686 22.6659 5.44587 22.7398 5.55717 22.7897C5.66847 22.8396 5.78934 22.8644 5.91125 22.8623C5.96709 22.8492 6.01972 22.825 6.06595 22.791C6.11218 22.757 6.15105 22.7139 6.18022 22.6644C6.20939 22.6149 6.22824 22.56 6.23565 22.5029C6.24305 22.4459 6.23885 22.388 6.22329 22.3326C6.17677 22.2106 6.10124 22.1018 6.00326 22.0157C5.39918 21.4138 4.7791 20.8119 4.15101 20.2542C4.04605 20.1355 3.90578 20.0539 3.75096 20.0215C3.60698 20.0214 3.46764 20.0726 3.35776 20.1659C3.24787 20.2592 3.17456 20.3886 3.15088 20.5311C3.15088 20.7879 3.37091 20.8842 3.55093 21.0286C4.11901 21.5342 4.68708 22.0638 5.26716 22.5734Z" fill="#3B2645"/>
<path d="M5.17914 21.8627C5.20404 21.837 5.22433 21.8071 5.23914 21.7745C5.24928 21.733 5.24987 21.6898 5.24086 21.6481C5.23185 21.6063 5.21347 21.5672 5.18714 21.5337C5.03912 21.289 4.73508 20.8957 4.43504 20.8596C4.33598 20.8546 4.23732 20.8756 4.14889 20.9207C4.06046 20.9657 3.98532 21.0332 3.93097 21.1164C3.84119 21.246 3.7841 21.3954 3.76459 21.552C3.74508 21.7085 3.76373 21.8675 3.81895 22.0152C3.90676 22.2809 4.08714 22.506 4.32702 22.6492C4.44672 22.7 4.5814 22.7026 4.70291 22.6562C4.82442 22.6098 4.92338 22.5182 4.97911 22.4004C5.03912 22.2519 5.01912 22.0714 5.11513 21.947C5.13334 21.9166 5.1548 21.8884 5.17914 21.8627Z" fill="#FFEDE5"/>
<path d="M20.4893 7.64716C19.5651 8.29316 19.4811 9.54904 19.9332 10.5521C20.2332 11.2222 20.7973 11.6917 21.1333 12.3256C21.4822 12.9387 21.8838 13.52 22.3335 14.063C23.3256 15.3269 24.2738 16.4705 24.6338 16.9038C25.89 18.4125 28.5223 20.3866 29.4705 21.0767L29.8185 21.3255C29.8185 21.3255 30.7226 20.848 30.4826 19.9653C30.4826 19.9653 26.8821 16.1294 26.35 15.347C25.7605 14.3309 25.2263 13.2834 24.7498 12.2093C24.1338 11.0055 23.4977 9.84596 22.8296 8.68637C22.5255 8.15272 22.1415 7.48265 21.4694 7.36228C21.1998 7.33218 20.9277 7.38985 20.6933 7.52679C20.6224 7.5618 20.5542 7.60204 20.4893 7.64716Z" fill="#FFEDE5"/>
<path d="M30.4785 19.969C30.3786 19.9615 30.2783 19.9615 30.1785 19.969C30.1785 19.969 29.3143 20.4505 29.4624 21.0765C29.4624 21.0765 29.5584 21.1607 29.6984 21.2891C29.8384 21.4175 30.0024 21.57 30.1865 21.7626C30.3705 21.9552 30.8065 22.5651 30.9866 22.5129C31.0289 22.4959 31.0661 22.4683 31.0946 22.4327L31.4626 22.0314C31.6747 21.7987 32.0187 21.4055 31.7587 21.0965C31.9467 21.2129 32.3948 21.4978 32.6188 21.3613L32.6948 21.2129C32.6948 21.2129 32.0347 20.7194 31.7587 20.4746C31.3987 20.1699 30.9489 19.9922 30.4785 19.969Z" fill="#FFEDE5"/>
<path d="M30.5706 22.5734C30.4909 22.666 30.3919 22.7398 30.2806 22.7898C30.1693 22.8397 30.0484 22.8645 29.9265 22.8623C29.87 22.8502 29.8165 22.8266 29.7694 22.793C29.7222 22.7594 29.6824 22.7165 29.6525 22.6668C29.6225 22.6172 29.6029 22.562 29.595 22.5045C29.5871 22.4471 29.591 22.3886 29.6065 22.3327C29.6564 22.216 29.7332 22.1129 29.8305 22.0318C30.4359 21.4299 31.0547 20.8428 31.6868 20.2703C31.7912 20.151 31.9317 20.0692 32.0868 20.0376C32.2303 20.0377 32.3691 20.089 32.4784 20.1824C32.5876 20.2757 32.6601 20.4051 32.6829 20.5472C32.6829 20.804 32.4669 20.9003 32.2829 21.0447C31.7188 21.5342 31.1507 22.0639 30.5706 22.5734Z" fill="#3B2645"/>
<path d="M30.6627 21.8627C30.6354 21.8382 30.6136 21.8081 30.5987 21.7745C30.5902 21.7326 30.5909 21.6895 30.6005 21.648C30.6102 21.6064 30.6287 21.5674 30.6547 21.5337C30.7987 21.289 31.1027 20.8957 31.4028 20.8596C31.5018 20.8546 31.6005 20.8756 31.6889 20.9207C31.7774 20.9657 31.8525 21.0332 31.9069 21.1164C31.9956 21.2466 32.0512 21.3966 32.0686 21.5533C32.086 21.71 32.0648 21.8686 32.0069 22.0152C31.9217 22.2824 31.7407 22.5083 31.4988 22.6492C31.3791 22.7 31.2444 22.7026 31.1229 22.6562C31.0014 22.6098 30.9024 22.5182 30.8467 22.4004C30.7907 22.2519 30.8107 22.0714 30.7107 21.947L30.6627 21.8627Z" fill="#FFEDE5"/>
<path d="M22.1215 36.2393V36.6405C22.1215 36.9094 22.1215 37.1862 22.1215 37.4711V37.7961C22.1215 38.1251 22.0975 38.4662 22.0815 38.8153C21.0457 39.1019 19.9792 39.2622 18.9051 39.2927C18.8611 38.8434 18.773 37.6477 18.769 37.5153C18.769 37.2424 18.709 36.472 18.705 36.3677C18.681 35.7819 18.665 35.1961 18.665 34.6223C18.665 33.876 18.693 33.1457 18.749 32.4676C18.749 32.4195 18.749 32.3754 18.749 32.3312C18.749 32.2871 18.305 29.7633 17.9489 26.8061C17.9089 27.1191 17.8689 27.4321 17.8289 27.733C17.4929 30.2769 17.1368 32.3312 17.1368 32.3312C17.1968 33.0454 17.2248 33.8198 17.2248 34.6143C17.2248 35.2202 17.2248 35.818 17.1808 36.452C17.1808 36.5563 17.1008 37.8964 17.0888 38.0248C17.0608 38.4542 17.0248 38.8755 16.9888 39.2807C16.4287 39.2566 15.8767 39.2205 15.3286 39.1724C14.8965 39.1363 14.3525 39.1122 13.8244 39.036C13.8004 38.6748 13.7844 38.3298 13.7724 37.9927C13.7724 37.9085 13.7724 37.8242 13.7724 37.7399C13.7724 37.3708 13.7724 37.0217 13.7724 36.6847V36.4199C13.7724 33.9883 14.0084 32.3874 13.9724 32.0062C13.1363 23.5801 14.3044 18.9338 14.3044 18.9338C14.4868 18.2586 14.8161 17.6324 15.2686 17.1001C15.6115 17.1534 15.948 17.2421 16.2727 17.3649C16.7673 17.4945 17.2779 17.5526 17.7889 17.5375H18.157C18.601 17.5375 19.0451 17.4853 19.4851 17.4733H19.7812C20.203 17.467 20.6243 17.5073 21.0374 17.5936C21.2842 18.0192 21.4752 18.4751 21.6054 18.9498C21.9286 20.4643 22.1187 22.0043 22.1735 23.5521C22.309 26.3774 22.2301 29.2089 21.9375 32.0223C21.8895 32.3794 22.1015 33.9081 22.1215 36.2393Z" fill="#3B2645"/>
<path d="M6.08745 7.16942C6.08745 7.14535 6.03944 7.14535 6.03544 7.16942C5.83541 8.53766 5.95143 9.97811 5.95143 11.3784C5.95143 12.859 5.90342 14.3516 5.99143 15.8282C5.99522 15.844 6.00418 15.858 6.01688 15.868C6.02958 15.8781 6.04528 15.8835 6.06144 15.8835C6.07761 15.8835 6.09331 15.8781 6.106 15.868C6.1187 15.858 6.12767 15.844 6.13145 15.8282C6.21546 14.3516 6.16746 12.859 6.16746 11.3784C6.16746 10.0102 6.28347 8.54969 6.08745 7.16942Z" fill="#F7F8F8"/>
<path d="M7.83558 7.63499C7.83132 7.61529 7.82046 7.59764 7.80482 7.58499C7.78917 7.57233 7.76967 7.56543 7.74957 7.56543C7.72947 7.56543 7.70997 7.57233 7.69433 7.58499C7.67868 7.59764 7.66782 7.61529 7.66356 7.63499C7.66356 8.95106 7.57955 10.2912 7.66356 11.6033C7.66356 11.6256 7.67241 11.647 7.68817 11.6629C7.70392 11.6787 7.72529 11.6875 7.74757 11.6875C7.76985 11.6875 7.79122 11.6787 7.80697 11.6629C7.82273 11.647 7.83158 11.6256 7.83158 11.6033C7.92359 10.2912 7.84358 8.95106 7.83558 7.63499Z" fill="#F7F8F8"/>
<path d="M25.7219 21.4134C25.7186 21.4015 25.7116 21.391 25.7018 21.3836C25.6921 21.3761 25.6802 21.3721 25.6679 21.3721C25.6556 21.3721 25.6437 21.3761 25.6339 21.3836C25.6242 21.391 25.6171 21.4015 25.6139 21.4134C25.5012 23.1363 25.4785 24.864 25.5459 26.5894C25.5459 28.3147 25.5459 30.036 25.6099 31.7614C25.6133 31.7742 25.6208 31.7856 25.6313 31.7937C25.6418 31.8018 25.6546 31.8062 25.6679 31.8062C25.6811 31.8062 25.694 31.8018 25.7045 31.7937C25.715 31.7856 25.7225 31.7742 25.7259 31.7614C25.7819 30.036 25.7819 28.3147 25.7899 26.5894C25.8553 24.864 25.8326 23.1364 25.7219 21.4134Z" fill="#F7F8F8"/>
<path d="M28.8064 11.3223C28.794 10.1742 28.7192 9.02765 28.5824 7.8877C28.5824 7.81949 28.4744 7.83956 28.4704 7.8877C28.4395 9.12057 28.4756 10.3542 28.5784 11.5831C28.6304 12.7267 28.6184 13.8983 28.7704 15.0298C28.7704 15.1341 28.9465 15.102 28.9505 15.0057C29.0065 13.7819 28.8784 12.5341 28.8064 11.3223Z" fill="#F7F8F8"/>
<path d="M29.6065 11.9602C29.6037 11.9512 29.5982 11.9434 29.5906 11.9378C29.583 11.9322 29.5739 11.9292 29.5645 11.9292C29.5551 11.9292 29.546 11.9322 29.5385 11.9378C29.5309 11.9434 29.5253 11.9512 29.5225 11.9602C29.4165 13.6087 29.4085 15.262 29.4985 16.9115C29.496 16.9215 29.4959 16.932 29.498 16.9422C29.5002 16.9523 29.5046 16.9618 29.511 16.9699C29.5173 16.9781 29.5255 16.9847 29.5347 16.9892C29.544 16.9938 29.5542 16.9961 29.5645 16.9961C29.5748 16.9961 29.585 16.9938 29.5943 16.9892C29.6036 16.9847 29.6117 16.9781 29.6181 16.9699C29.6245 16.9618 29.6289 16.9523 29.631 16.9422C29.6332 16.932 29.633 16.9215 29.6305 16.9115C29.7205 15.262 29.7125 13.6087 29.6065 11.9602Z" fill="#F7F8F8"/>
<path d="M17.8088 27.7291C17.8149 27.4167 17.8552 27.1059 17.9289 26.8022C17.8888 27.1152 17.8488 27.4282 17.8088 27.7291Z" fill="#291B30"/>
<path d="M22.1615 23.5521C21.6215 20.298 17.1609 20.1455 17.1609 20.1455C16.8848 18.8054 18.6851 18.4041 18.6851 18.4041L19.7372 17.4933C20.1591 17.487 20.5803 17.5274 20.9934 17.6137C21.254 18.0307 21.4597 18.4798 21.6055 18.9498C21.922 20.4651 22.1081 22.0048 22.1615 23.5521Z" fill="#291B30"/>
<path d="M21.6695 19.2992C18.069 20.9965 14.1565 19.4396 14.1565 19.4396C14.4405 18.6372 14.2285 14.5445 14.2085 13.7661C14.2085 13.7661 14.2085 13.738 14.2085 13.726C14.2101 13.6966 14.2101 13.6671 14.2085 13.6377C14.9646 11.8803 15.0486 8.49378 15.0526 7.33018C15.3927 7.27802 15.7487 7.24994 16.0567 7.23389C16.1768 8.53391 16.6048 11.8682 17.797 11.7238C18.9891 11.5793 19.5572 8.61014 19.7652 7.31012C19.9846 7.34702 20.2071 7.36181 20.4293 7.35426C20.4973 7.35426 20.5654 7.35426 20.6334 7.35426C20.5293 9.13176 21.5135 12.8673 21.5415 12.9716C21.5415 12.9997 21.5415 13.0318 21.5415 13.0599C21.5415 13.1562 21.5135 13.2565 21.5015 13.3649C21.5015 13.3649 21.5015 13.409 21.5015 13.4331C21.2494 15.6961 21.6695 19.2992 21.6695 19.2992Z" fill="#AB8DA8"/>
</svg>
